<?xml version="1.0" encoding="UTF-8" standalone="no"?>
<!-- Created with Inkscape (http://www.inkscape.org/) -->
<svg
   xmlns:dc="http://purl.org/dc/elements/1.1/"
   xmlns:cc="http://creativecommons.org/ns#"
   xmlns:rdf="http://www.w3.org/1999/02/22-rdf-syntax-ns#"
   xmlns:svg="http://www.w3.org/2000/svg"
   xmlns="http://www.w3.org/2000/svg"
   xmlns:sodipodi="http://sodipodi.sourceforge.net/DTD/sodipodi-0.dtd"
   xmlns:inkscape="http://www.inkscape.org/namespaces/inkscape"
   width="744.09448819"
   height="1052.3622047"
   id="svg2"
   sodipodi:version="0.32"
   inkscape:version="0.46"
   sodipodi:docname="drawing.svg"
   inkscape:output_extension="org.inkscape.output.svg.inkscape">
  <defs
     id="defs4">
    <inkscape:perspective
       sodipodi:type="inkscape:persp3d"
       inkscape:vp_x="0 : 526.18109 : 1"
       inkscape:vp_y="0 : 1000 : 0"
       inkscape:vp_z="744.09448 : 526.18109 : 1"
       inkscape:persp3d-origin="372.04724 : 350.78739 : 1"
       id="perspective10" />
  </defs>
  <sodipodi:namedview
     id="base"
     pagecolor="#ffffff"
     bordercolor="#666666"
     borderopacity="1.0"
     gridtolerance="10000"
     guidetolerance="10"
     objecttolerance="10"
     inkscape:pageopacity="0.0"
     inkscape:pageshadow="2"
     inkscape:zoom="0.35"
     inkscape:cx="375"
     inkscape:cy="-3690.9336"
     inkscape:document-units="px"
     inkscape:current-layer="layer1"
     showgrid="false"
     inkscape:window-width="1668"
     inkscape:window-height="956"
     inkscape:window-x="0"
     inkscape:window-y="0" />
  <metadata
     id="metadata7">
    <rdf:RDF>
      <cc:Work
         rdf:about="">
        <dc:format>image/svg+xml</dc:format>
        <dc:type
           rdf:resource="http://purl.org/dc/dcmitype/StillImage" />
      </cc:Work>
    </rdf:RDF>
  </metadata>
  <g
     inkscape:label="Layer 1"
     inkscape:groupmode="layer"
     id="layer1">
    <path
       sodipodi:type="arc"
       style="fill:#ffe6d5;fill-opacity:0"
       id="path2499"
       sodipodi:cx="147.14285"
       sodipodi:cy="483.79074"
       sodipodi:rx="90"
       sodipodi:ry="2.8571429"
       d="M 237.14285,483.79074 A 90,2.8571429 0 1 1 57.245667,483.65421 L 147.14285,483.79074 z"
       sodipodi:start="0"
       sodipodi:end="3.1893964" />
    <path
       style="fill:#000000;fill-opacity:1;fill-rule:nonzero;stroke:none;stroke-width:1px;stroke-linecap:butt;stroke-linejoin:miter;stroke-opacity:1"
       id="path2503"
       d="M -1641.0907,3705.4615 C -1641.4892,3720.134 -1640.2096,3734.8131 -1639.3594,3749.4572 C -1639.3057,3763.4167 -1636.0613,3777.0081 -1633.6391,3790.6729 C -1630.7234,3802.7446 -1628.2716,3815.1243 -1623.4122,3826.587 C -1617.3933,3838.5874 -1611.2058,3850.7979 -1601.411,3860.1672 C -1594.5227,3865.864 -1586.3169,3866.1893 -1577.8044,3865.0693 C -1572.3804,3863.6033 -1570.1239,3863.1863 -1564.8786,3860.9672 C -1563.5784,3860.4172 -1555.4255,3856.2987 -1553.9433,3855.4817 C -1552.4306,3854.6479 -1547.981,3851.9911 -1549.4875,3852.8361 C -1560.1651,3858.8248 -1570.8009,3864.8877 -1581.4576,3870.9136 C -1574.5863,3865.3044 -1568.1981,3858.9865 -1562.8232,3851.9235 C -1556.5743,3842.928 -1552.9346,3832.5358 -1550.1533,3822.0308 C -1547.8569,3812.7185 -1547.5626,3803.0971 -1547.3749,3793.556 C -1547.2018,3785.3946 -1547.5339,3777.2266 -1547.0721,3769.0752 C -1544.4656,3752.2177 -1540.55,3735.5476 -1536.7391,3718.9186 C -1532.0848,3702.7434 -1534.3298,3707.7881 -1497.0072,3697.1549 C -1495.3835,3696.6923 -1487.9586,3737.252 -1487.5158,3739.6465 C -1481.6917,3772.016 -1474.5163,3804.1493 -1466.7921,3836.116 C -1460.7939,3858.2823 -1458.0489,3881.0058 -1456.1747,3903.8186 C -1454.476,3923.43 -1451.8063,3942.9469 -1448.8197,3962.3992 C -1446.0856,3984.8732 -1443.7198,4007.405 -1441.3572,4029.9249 C -1437.7676,4068.4705 -1437.3917,4107.2121 -1436.9036,4145.892 C -1436.9922,4175.7735 -1435.6028,4205.997 -1440.4954,4235.6287 C -1444.3423,4258.9269 -1447.6953,4266.7944 -1454.803,4289.5739 C -1464.8417,4315.9708 -1476.779,4341.6454 -1490.0496,4366.5681 C -1496.2854,4378.2792 -1503.1561,4390.9512 -1511.9946,4401.0348 C -1516.4812,4406.1534 -1521.8457,4410.4302 -1526.7713,4415.1279 C -1555.5051,4434.7213 -1585.7175,4453.5704 -1619.3032,4463.4516 C -1630.1077,4466.6304 -1645.0124,4469.8194 -1656.5739,4468.999 C -1661.8444,4468.625 -1666.8955,4466.7326 -1672.0563,4465.5994 C -1676.4724,4463.0386 -1681.3336,4461.1248 -1685.3047,4457.9169 C -1704.641,4442.297 -1714.6702,4413.1659 -1719.6003,4389.8341 C -1721.3719,4381.4499 -1722.276,4372.9056 -1723.6138,4364.4414 C -1727.5979,4322.1417 -1722.2016,4279.5517 -1712.7043,4238.299 C -1707.001,4213.526 -1701.4394,4197.3021 -1693.8984,4173.1499 C -1682.0502,4134.8671 -1668.084,4097.354 -1651.1304,4061.0493 C -1644.8304,4045.6218 -1636.7712,4031.1086 -1628.9745,4016.4198 C -1624.6523,4008.764 -1621.1481,4000.6872 -1616.0753,3993.4696 C -1611.3749,3986.7817 -1609.9833,3985.5999 -1604.3015,3979.1675 C -1590.9749,3964.3916 -1577.0364,3950.1928 -1563.3306,3935.775 C -1548.0089,3918.3028 -1532.4442,3901.0328 -1517.3779,3883.336 C -1511.0069,3874.4144 -1502.4484,3867.4687 -1495.1102,3859.4426 C -1489.1597,3852.9344 -1487.8077,3850.4243 -1482.2377,3842.5959 C -1455.5144,3805.7547 -1432.326,3766.5497 -1409.2555,3727.3701 C -1407.3565,3724.0527 -1405.4206,3720.7562 -1403.5587,3717.4178 C -1402.4182,3715.373 -1401.3413,3713.2934 -1400.2493,3711.2223 C -1399.6711,3710.1256 -1399.0983,3709.0258 -1398.5482,3707.9148 C -1398.3308,3707.4759 -1398.3988,3706.7641 -1397.9475,3706.5739 C -1358.2518,3689.8414 -1354.4981,3679.4998 -1361.68,3695.1956 C -1364.935,3702.2 -1368.2133,3709.232 -1370.451,3716.6366 C -1372.5037,3725.6789 -1374.1272,3734.7948 -1375.5352,3743.9576 C -1377.0898,3754.6465 -1377.7806,3765.4301 -1378.1806,3776.2154 C -1378.0887,3785.2275 -1379.0585,3794.3186 -1378.0112,3803.3056 C -1377.5979,3806.8525 -1376.8927,3810.3592 -1376.3335,3813.8861 C -1371.8092,3835.6178 -1367.4595,3857.6117 -1359.6085,3878.4339 C -1357.5623,3881.5161 -1355.6311,3889.5728 -1350.9756,3890.558 C -1347.947,3891.1989 -1337.4295,3884.4912 -1335.2563,3883.3082 C -1310.0539,3869.0132 -1350.312,3891.8654 -1354.0668,3893.8068 C -1357.1475,3895.3997 -1348.2441,3890.037 -1345.3561,3888.1167 C -1337.9001,3883.1588 -1331.1462,3878.0263 -1324.5371,3872.0026 C -1315.6975,3863.4571 -1308.0758,3853.7146 -1302.7662,3842.6095 C -1299.9254,3834.5974 -1297.5534,3826.3974 -1295.5273,3818.141 C -1293.5159,3810.8839 -1291.7786,3803.5969 -1290.9262,3796.1102 C -1289.6388,3788.2218 -1288.5561,3780.3239 -1287.9318,3772.3543 C -1287.8543,3764.9699 -1286.1863,3756.6002 -1289.6106,3749.681 C -1290.3603,3748.1661 -1291.439,3746.8374 -1292.3532,3745.4156 C -1298.5843,3739.0544 -1303.9814,3732.0103 -1309.3249,3724.9239 C -1313.4222,3719.3939 -1319.4457,3715.6493 -1325.6412,3712.8343 C -1331.8097,3710.4014 -1338.1212,3711.8245 -1344.4849,3712.3712 C -1347.9786,3712.4513 -1351.3523,3712.999 -1354.463,3714.6601 C -1355.3891,3715.1547 -1358.0288,3716.8761 -1357.114,3716.3609 C -1323.1919,3697.2557 -1313.4018,3688.5434 -1325.2753,3698.8317 C -1329.606,3704.2658 -1331.3584,3711.2123 -1332.9768,3717.84 C -1334.4091,3725.3139 -1336.2746,3731.1118 -1332.6204,3738.1418 C -1327.7305,3744.8112 -1319.2336,3745.2858 -1311.6435,3746.3745 C -1284.5212,3749.1289 -1257.2295,3745.9303 -1230.2751,3742.8575 C -1217.7261,3740.4079 -1204.2439,3739.5432 -1192.4474,3734.1467 C -1190.699,3733.3468 -1185.7474,3730.3706 -1187.4234,3731.3128 C -1198.1908,3737.3663 -1208.9555,3743.4246 -1219.7216,3749.4804 C -1214.4365,3745.5805 -1213.203,3740.1467 -1212.8243,3733.9631 C -1212.9707,3728.303 -1212.8359,3722.7332 -1212.0037,3717.1297 C -1209.2474,3700.3047 -1251.2425,3723.0795 -1173.0404,3699.1432 C -1172.0103,3698.8279 -1172.8609,3701.2904 -1172.797,3702.3657 C -1172.6249,3705.2615 -1172.6361,3706.4828 -1172.5841,3709.4416 C -1172.5139,3718.2425 -1172.5908,3727.0442 -1172.6217,3735.8453 C -1172.638,3744.8207 -1172.6473,3753.7958 -1172.6033,3762.7712 C -1172.4802,3769.2687 -1173.0293,3775.7689 -1171.647,3782.1527 C -1169.6362,3788.8998 -1165.338,3793.0558 -1160.8021,3798.0321 C -1156.5719,3802.7148 -1151.8124,3805.988 -1145.7238,3807.5931 C -1138.9872,3808.9812 -1132.231,3808.581 -1125.4956,3807.5762 C -1121.1558,3807.2714 -1117.0373,3806.223 -1113.0255,3804.5535 C -1111.1843,3803.7873 -1105.8741,3801.0358 -1107.5923,3802.0483 C -1144.2978,3823.6783 -1145.5627,3825.1348 -1130.7575,3813.8187 C -1128.2052,3811.1792 -1125.4299,3808.7383 -1123.1004,3805.9001 C -1117.7211,3799.346 -1110.544,3787.6962 -1106.4534,3780.7269 C -1095.7234,3762.4461 -1086.6246,3743.4989 -1077.7101,3724.2909 C -1066.3195,3698.4802 -1055.7351,3672.1343 -1049.3349,3644.597 C -1044.1761,3620.9748 -1051.6188,3631.7945 -1008.8579,3615.1694 C -1008.7562,3615.1298 -1008.8611,3617.2417 -1009.0303,3621.1696 C -1010.0022,3629.2697 -1011.2661,3637.3163 -1011.9366,3645.4519 C -1012.0551,3655.4736 -1014.1194,3665.2752 -1015.6401,3675.1404 C -1017.3295,3686.2931 -1017.8648,3697.5671 -1018.2131,3708.8269 C -1018.6527,3718.7451 -1017.7119,3728.7212 -1014.9398,3738.261 C -1013.3887,3744.0138 -1009.4071,3748.5194 -1005.8401,3753.1623 C -1001.877,3757.9921 -996.51056,3759.0396 -990.62224,3759.6219 C -989.69326,3759.6749 -983.31816,3760.0725 -982.45848,3759.9823 C -971.4014,3758.8227 -927.97235,3731.4227 -1005.4569,3774.9135 C -997.26914,3767.9878 -991.94989,3758.4431 -987.67481,3748.762 C -982.27872,3731.325 -980.00816,3713.0414 -977.09669,3695.0557 C -974.76568,3684.4864 -975.27722,3673.3913 -972.0061,3663.0471 C -968.90659,3655.7218 -968.46727,3647.7133 -967.06075,3639.969 C -959.6244,3609.4524 -929.24109,3607.8515 -905.36856,3609.1274 C -898.25295,3610.1165 -888.1093,3609.474 -881.6003,3612.9868 C -880.50207,3613.5795 -879.61651,3614.5015 -878.62462,3615.2588 C -873.04646,3621.9586 -869.85309,3629.9244 -867.58125,3638.2385 C -863.81143,3654.8146 -860.11292,3671.4105 -856.77025,3688.0798 C -855.19335,3694.2842 -854.877,3700.7358 -853.67173,3706.9992 C -852.97793,3710.6047 -851.49156,3714.0721 -850.32703,3717.5399 C -849.02275,3719.7416 -849.12836,3722.5658 -847.86671,3724.7809 C -844.21666,3731.1894 -832.01892,3731.6644 -825.99845,3732.7708 C -804.89076,3736.1071 -783.62486,3738.3795 -762.40727,3740.9287 C -745.42492,3742.1377 -728.73261,3738.3727 -712.73435,3733.0106 C -692.67227,3721.9571 -729.50703,3742.8325 -738.19302,3747.1758 C -739.84991,3748.0043 -735.4203,3744.7172 -734.07947,3743.439 C -732.80214,3742.2213 -731.5871,3740.9398 -730.34092,3739.6903 L -691.48343,3723.6056 C -692.74994,3724.857 -694.05324,3726.0722 -695.28296,3727.3597 C -696.63344,3728.7737 -697.57691,3730.6489 -699.22107,3731.7072 C -733.32221,3753.6565 -726.52574,3750.4795 -745.75796,3758.5738 C -762.1844,3763.3846 -779.25727,3766.7553 -796.4466,3764.9956 C -817.58345,3762.0525 -838.76692,3759.5132 -859.8871,3756.4643 C -868.92785,3754.8056 -879.73895,3754.0765 -884.90484,3745.1717 C -886.18303,3742.9685 -885.97271,3740.0997 -887.40321,3737.9501 C -888.62543,3734.207 -890.22212,3730.4309 -890.91084,3726.5403 C -892.01539,3720.3007 -891.89366,3713.8187 -893.42414,3707.6327 C -896.41314,3691.0395 -900.27153,3674.6623 -904.60316,3658.3702 C -906.61786,3651.0819 -909.15184,3643.7659 -914.33756,3638.0762 C -921.77845,3633.8214 -931.10992,3634.5282 -939.36344,3633.6258 C -943.21162,3633.5354 -948.11133,3633.245 -951.94024,3633.8647 C -953.82714,3634.1702 -959.04453,3636.4765 -957.46547,3635.3993 C -947.19106,3628.3906 -936.24834,3622.4157 -925.63978,3615.9238 C -926.41894,3616.6557 -927.41388,3617.2109 -927.97726,3618.1194 C -928.59806,3619.1204 -928.71427,3620.3569 -929.08277,3621.4757 C -929.57233,3624.1346 -930.22491,3626.7644 -930.63333,3629.437 C -931.43682,3634.6948 -931.26501,3640.264 -933.6162,3645.161 C -934.25064,3646.6562 -935.79056,3650.1144 -936.11481,3651.6314 C -937.88127,3659.896 -937.62503,3668.6459 -939.8484,3676.8535 C -943.0207,3694.968 -945.50111,3713.2356 -949.46685,3731.1866 C -953.63277,3741.4189 -958.94634,3750.9879 -966.15772,3759.4418 C -993.64927,3775.5104 -999.48592,3786.7307 -1025.192,3784.02 C -1031.989,3782.8351 -1037.8644,3780.4406 -1042.2591,3774.8457 C -1046.1803,3769.7977 -1050.4301,3764.8158 -1052.002,3758.4758 C -1054.8466,3748.5512 -1056.0357,3738.1666 -1055.8286,3727.8482 C -1055.482,3716.4063 -1054.6762,3704.9734 -1053.2813,3693.6095 C -1051.8224,3683.8805 -1049.8433,3674.2062 -1049.7432,3664.3368 C -1049.1175,3656.2733 -1048.1428,3648.262 -1046.8519,3640.277 C -1046.363,3621.0614 -1047.4953,3634.8761 -1008.5384,3614.7885 C -1008.2158,3614.6222 -1009.1951,3615.2188 -1009.3004,3615.5661 C -1010.3906,3619.1597 -1010.0796,3623.1013 -1011.7818,3626.5554 C -1018.6334,3654.6976 -1030.3789,3681.3684 -1041.7885,3707.8933 C -1050.4701,3727.0419 -1059.3214,3745.9864 -1069.5493,3764.3731 C -1072.4881,3769.6562 -1081.1295,3784.5004 -1085.1094,3789.9512 C -1087.257,3792.8927 -1089.8389,3795.4911 -1092.2036,3798.2611 C -1110.6486,3814.9395 -1134.2607,3829.7408 -1159.416,3832.8566 C -1166.5559,3833.5423 -1173.8798,3833.5073 -1180.8094,3831.4339 C -1187.1743,3829.002 -1192.4218,3825.095 -1196.9776,3820.0135 C -1201.9436,3814.7554 -1206.5907,3809.3149 -1208.9003,3802.2887 C -1210.7415,3795.5938 -1210.3787,3788.8529 -1210.2504,3781.9512 C -1210.1987,3772.9569 -1210.1959,3763.9628 -1210.1728,3754.9685 C -1210.1664,3746.219 -1210.1425,3737.4695 -1210.2388,3728.7203 C -1210.2924,3726.2256 -1210.721,3718.9513 -1210.6197,3718.8886 C -1198.2961,3711.2716 -1184.911,3705.5079 -1172.3306,3698.3231 C -1171.988,3698.1275 -1172.8064,3697.4483 -1173.1951,3697.5151 C -1173.5853,3697.5821 -1173.5633,3698.216 -1173.7474,3698.5665 C -1175.0926,3703.9567 -1175.2962,3709.3149 -1174.9534,3714.8523 C -1175.0807,3721.7708 -1175.6307,3728.555 -1180.5257,3733.9384 C -1195.3732,3742.7658 -1209.175,3753.9601 -1225.4313,3759.8 C -1237.4164,3764.1055 -1250.3756,3765.1941 -1262.8653,3767.0775 C -1290.3879,3769.9033 -1318.2013,3773.178 -1345.8644,3770.4685 C -1355.0795,3769.034 -1363.9234,3767.5591 -1369.3505,3759.162 C -1374.1132,3750.2433 -1372.7182,3745.7581 -1370.999,3736.1531 C -1369.4836,3729.0001 -1367.7063,3721.8849 -1364.3601,3715.3421 C -1353.6547,3699.4496 -1330.2597,3688.8271 -1310.4621,3687.1959 C -1303.4815,3686.5751 -1296.7406,3686.2941 -1290.2601,3689.5431 C -1283.7169,3693.0594 -1277.2887,3697.2199 -1272.91,3703.3486 C -1267.6558,3710.6022 -1262.1473,3717.6378 -1256.0603,3724.2284 C -1253.5687,3728.0988 -1251.8565,3730.0485 -1250.7148,3734.5832 C -1249.1894,3740.6417 -1250.2461,3747.2875 -1250.1578,3753.4335 C -1250.6348,3761.4374 -1251.56,3769.4005 -1253.0367,3777.2852 C -1253.7258,3784.9555 -1255.1133,3792.4719 -1257.4914,3799.8177 C -1259.2817,3808.3779 -1262.105,3816.6691 -1264.4585,3825.0851 C -1269.4195,3836.8391 -1277.0786,3847.088 -1286.0106,3856.171 C -1309.3493,3879.0298 -1340.0919,3892.7414 -1367.7629,3909.3341 C -1371.7878,3911.2246 -1376.8801,3914.2753 -1381.6556,3914.2849 C -1390.0437,3914.3018 -1393.1732,3904.7089 -1396.0256,3898.6277 C -1403.5587,3877.4036 -1407.2713,3855.0829 -1412.7149,3833.2707 C -1413.4708,3829.6983 -1414.3657,3826.1525 -1414.9825,3822.5534 C -1416.5318,3813.5126 -1415.8587,3804.3369 -1415.7887,3795.2205 C -1415.4657,3784.2578 -1414.5586,3773.3316 -1413.157,3762.4519 C -1411.9048,3753.1944 -1410.5487,3743.9835 -1408.6182,3734.8554 C -1406.8301,3727.0999 -1403.3358,3719.9772 -1400.1896,3712.699 C -1391.9785,3696.3343 -1399.3698,3709.4892 -1358.7861,3689.713 C -1358.3294,3689.4904 -1359.6421,3690.2949 -1359.9453,3690.7026 C -1360.7652,3691.8048 -1361.4154,3693.0239 -1362.1243,3694.2007 C -1371.6516,3710.0165 -1358.9636,3689.4304 -1372.4065,3711.0639 C -1396.4693,3749.4598 -1419.3348,3788.6225 -1444.6834,3826.1996 C -1447.8469,3831.1067 -1452.4421,3838.7202 -1456.4598,3843.449 C -1463.5776,3851.8266 -1473.2557,3857.9521 -1479.403,3867.251 C -1494.4944,3884.9411 -1510.2015,3902.0968 -1525.2189,3919.8495 C -1538.7379,3934.4068 -1552.897,3948.3603 -1566.1822,3963.1393 C -1571.7935,3969.2729 -1577.2916,3975.3496 -1581.7326,3982.4169 C -1584.4487,3986.7391 -1585.0522,3988.758 -1587.5031,3993.2784 C -1588.6124,3995.3245 -1589.8263,3997.3121 -1590.9879,3999.3289 C -1594.833,4006.6946 -1599.1763,4013.7908 -1602.9471,4021.1916 C -1607.5279,4030.1818 -1605.3651,4026.7846 -1609.5315,4035.6639 C -1610.8579,4038.4908 -1612.3096,4041.2572 -1613.6986,4044.0538 C -1631.9108,4080.4955 -1647.4127,4118.1344 -1659.6877,4157.0172 C -1667.391,4181.131 -1673.0071,4197.0588 -1678.7651,4221.8207 C -1688.2164,4262.4654 -1693.4239,4304.4984 -1689.138,4346.1641 C -1687.7355,4354.4307 -1686.7555,4362.7802 -1684.9305,4370.9639 C -1679.9948,4393.0967 -1670.1499,4421.3495 -1651.256,4435.738 C -1647.5039,4438.5954 -1642.9449,4440.1986 -1638.7894,4442.4288 C -1633.9165,4443.3234 -1629.1204,4444.8993 -1624.1706,4445.1126 C -1612.8238,4445.6015 -1598.7092,4442.3923 -1588.1475,4439.1023 C -1581.1796,4436.9319 -1574.5767,4429.1427 -1567.6441,4431.4232 C -1562.2731,4433.19 -1586.8403,4442.9363 -1581.424,4441.314 C -1574.7203,4439.3061 -1569.5446,4433.9136 -1563.6049,4430.2134 C -1558.6143,4425.7546 -1553.1904,4421.7378 -1548.6331,4416.837 C -1539.4566,4406.9687 -1532.0858,4394.2127 -1525.5927,4382.5856 C -1511.8375,4357.9546 -1499.7243,4332.3805 -1489.6567,4306.0224 C -1482.6989,4283.8092 -1479.278,4275.754 -1475.5703,4253.0265 C -1470.772,4223.6134 -1472.4898,4193.5844 -1472.2053,4163.9379 C -1472.7367,4125.5088 -1473.3559,4087.0132 -1477.3245,4048.7528 C -1479.9194,4026.4301 -1482.989,4004.1622 -1485.6185,3981.8448 C -1488.4923,3962.2476 -1490.7253,3942.5583 -1492.7654,3922.8587 C -1494.792,3900.1935 -1496.8191,3877.494 -1502.522,3855.3732 C -1509.8609,3823.2783 -1516.912,3791.1085 -1523.5081,3758.8537 C -1525.8177,3747.2503 -1528.0583,3735.7639 -1531.5113,3724.4379 C -1531.9941,3722.8545 -1534.392,3720.7306 -1533.077,3719.7251 C -1522.044,3711.2897 -1509.4928,3705.0271 -1497.3371,3698.3096 C -1496.4625,3697.8263 -1498.3958,3700.0047 -1498.9251,3700.8522 C -1503.6417,3716.9669 -1507.0769,3733.572 -1509.3022,3750.2006 C -1510.1206,3758.2634 -1509.412,3766.3785 -1509.7101,3774.4718 C -1509.9597,3784.2923 -1510.1866,3794.2255 -1512.1962,3803.8681 C -1514.8581,3814.7365 -1518.3568,3825.5328 -1524.2378,3835.129 C -1529.1527,3842.8805 -1535.6912,3849.1067 -1542.3048,3855.398 C -1564.1603,3868.4773 -1585.8444,3885.337 -1611.5842,3890.0287 C -1621.317,3890.3553 -1630.047,3889.2419 -1637.3086,3882.1518 C -1646.9846,3871.9664 -1653.3563,3859.437 -1659.8571,3847.0879 C -1665.1031,3835.3885 -1667.7033,3822.7391 -1670.4861,3810.2593 C -1672.8771,3796.4363 -1676.6037,3782.7422 -1676.4996,3768.6126 C -1677.0973,3753.9715 -1678.1709,3739.3615 -1678.9093,3724.731 L -1641.0907,3705.4615 z" />
    <path
       style="fill:#000000;fill-opacity:1;fill-rule:nonzero;stroke:none;stroke-width:1px;stroke-linecap:butt;stroke-linejoin:miter;stroke-opacity:1"
       id="path2511"
       d="M -1185.548,4075.549 C -1175.3518,4072.6071 -1165.6739,4067.8642 -1155.356,4065.4382 C -1140.9239,4061.3477 -1126.0978,4058.0298 -1112.3279,4051.9815 C -1092.9665,4040.2924 -1123.7485,4058.9697 -1134.0329,4063.8199 C -1137.4979,4065.4541 -1127.8081,4059.3513 -1124.7484,4057.0458 C -1115.1757,4049.8326 -1105.9405,4042.2504 -1096.8525,4034.4423 C -1089.1753,4027.8813 -1081.0529,4021.7188 -1074.211,4014.2386 C -1069.3479,4008.9217 -1067.6392,4006.3013 -1063.246,4000.4082 C -1055.4401,3990.029 -1050.3007,3978.1072 -1044.5912,3966.5492 C -1031.876,3959.6083 -1020.003,3950.8306 -1006.4456,3945.7266 C -1004.5537,3945.0144 -1004.5635,3949.3203 -1003.8886,3951.2258 C -1003.148,3953.317 -1002.7248,3955.5083 -1002.2165,3957.6678 C -999.24286,3970.302 -996.25157,3982.7803 -992.74036,3995.2898 C -985.88395,4019.83 -974.76589,4042.7876 -967.39445,4067.16 C -964.42745,4081.6829 -960.31504,4096.9085 -962.40805,4111.8196 C -963.08239,4113.2528 -963.49214,4114.8435 -964.43107,4116.1191 C -965.50809,4117.5823 -966.80214,4118.9598 -968.35636,4119.9007 C -997.30916,4137.4281 -1001.8204,4144.2567 -1027.6667,4146.61 C -1040.8974,4147.2266 -1054.205,4148.0051 -1067.3445,4145.8078 C -1075.2392,4144.4876 -1079.5244,4143.004 -1087.1284,4140.7888 C -1090.0424,4139.766 -1093.0093,4138.883 -1095.8704,4137.7204 C -1098.683,4136.5775 -1107.4664,4132.1599 -1110.4446,4130.7866 C -1116.0779,4128.1888 -1121.6862,4125.8514 -1127.1424,4122.887 C -1133.5701,4119.6792 -1137.5982,4113.4234 -1143.778,4109.9681 C -1148.1653,4107.404 -1151.0869,4103.4909 -1154.0824,4099.5464 C -1157.9178,4097.074 -1161.1894,4094.462 -1163.7629,4090.599 C -1164.166,4089.7595 -1164.5691,4088.92 -1164.9722,4088.0805 L -1128.001,4067.1478 C -1127.7059,4067.7933 -1127.4109,4068.4388 -1127.1158,4069.0843 C -1124.5396,4072.788 -1120.5483,4074.6079 -1117.4969,4077.8453 C -1114.8639,4081.4266 -1112.0675,4084.7539 -1108.1132,4086.9903 C -1102.3988,4090.9133 -1098.1439,4096.6134 -1091.9235,4099.8835 C -1079.4427,4106.6502 -1066.356,4112.6691 -1052.9914,4117.4021 C -1045.2592,4119.5404 -1041.7577,4120.7769 -1033.7083,4121.8872 C -1020.6018,4123.695 -1007.3036,4122.8056 -994.1901,4121.6585 C -988.56498,4120.7898 -986.43753,4120.7379 -981.24756,4118.9877 C -979.58609,4118.4274 -974.9017,4116.0445 -976.38729,4116.9758 C -986.5946,4123.375 -997.14684,4129.2076 -1007.4661,4135.4247 C -1008.8864,4136.2804 -1004.4193,4134.051 -1003.088,4133.0624 C -1002.025,4132.273 -1001.2801,4131.1273 -1000.3761,4130.1598 C -999.95818,4128.7868 -999.3252,4127.4617 -999.12237,4126.041 C -998.62343,4122.5461 -999.18065,4116.3927 -999.47694,4113.1216 C -1000.2745,4104.3166 -1001.5567,4095.5526 -1003.6787,4086.9613 C -1010.5462,4062.3854 -1021.5267,4039.3169 -1028.2545,4014.6891 C -1032.0644,4002.3993 -1035.5346,3990.0802 -1039.0183,3977.7005 C -1039.5624,3975.7669 -1040.1831,3973.8556 -1040.7588,3971.9311 C -1040.904,3971.4456 -1041.6068,3970.7453 -1041.1809,3970.4707 C -1029.6438,3963.0309 -1017.5951,3956.4161 -1005.8021,3949.3889 C -1008.7248,3953.3519 -1010.4105,3957.8173 -1012.6286,3962.2033 C -1016.4054,3969.6715 -1020.4112,3977.0706 -1025.2056,3983.942 C -1027.6405,3987.3968 -1032.746,3994.8194 -1035.587,3998.1931 C -1042.2723,4006.1316 -1050.6737,4012.4372 -1058.6645,4018.9497 C -1085.1688,4041.9655 -1112.9292,4063.1257 -1145.2075,4077.8749 C -1159.3929,4083.2406 -1174.2077,4086.7831 -1188.7357,4091.0913 C -1198.9013,4094.33 -1208.8772,4098.1651 -1219.0453,4101.4105 L -1185.548,4075.549 z" />
    <path
       style="fill:#000000;fill-opacity:1;fill-rule:nonzero;stroke:none;stroke-width:1px;stroke-linecap:butt;stroke-linejoin:miter;stroke-opacity:1"
       id="path2513"
       d="M -1125.7432,4075.4027 C -1120.3604,4082.4408 -1113.8762,4087.8902 -1106.4081,4092.5179 C -1098.8879,4096.4834 -1090.4534,4097.6075 -1082.351,4099.7294 C -1077.7185,4101.4873 -1072.623,4101.1763 -1067.8706,4102.2137 C -1065.1434,4102.809 -1062.5412,4103.8772 -1059.8626,4104.6626 C -1050.8019,4107.561 -1041.3582,4107.9739 -1031.9353,4108.3526 C -1019.3101,4109.6608 -1007.1917,4107.1365 -995.01395,4104.1571 C -979.97274,4100.7628 -964.92661,4097.7101 -950.39784,4092.477 C -937.52944,4086.3293 -910.06094,4072.0173 -966.95767,4102.8729 C -969.07671,4104.0221 -962.92391,4100.2246 -961.01081,4098.7579 C -957.12728,4095.7808 -955.43388,4093.8727 -952.04473,4090.477 C -944.92265,4083.9011 -941.51187,4075.5697 -938.91387,4066.4852 C -937.05628,4058.6028 -936.20081,4050.5444 -933.1957,4042.9868 C -930.21345,4037.4068 -925.34349,4032.5854 -923.40199,4026.4455 C -880.51431,4004.431 -879.75365,3998.1863 -888.29445,4016.0006 C -890.8265,4021.2819 -893.07255,4026.6707 -895.35163,4032.0647 C -899.47174,4041.887 -902.74472,4052.0309 -905.01861,4062.4329 C -906.20128,4068.8994 -907.04414,4075.5027 -906.63338,4082.0815 C -905.63294,4087.5821 -900.20533,4087.7441 -895.55045,4088.288 C -888.10929,4087.5786 -881.87368,4082.9758 -875.37937,4079.6293 C -937.45514,4116.5452 -900.22286,4094.2001 -886.68113,4084.3494 C -878.59394,4078.2346 -870.55515,4072.0252 -864.46957,4063.8594 C -859.01445,4055.8379 -853.57244,4047.8076 -848.1827,4039.742 C -845.0484,4034.5636 -842.53029,4029.0118 -840.25328,4023.408 C -837.53707,4018.7602 -833.87028,4015.0461 -831.93429,4009.9414 C -831.1001,4007.3278 -830.8797,4004.517 -829.74211,4001.9951 C -829.04028,4000.4392 -827.73121,3998.2704 -826.16979,3997.368 C -813.36548,3989.9676 -800.32727,3982.9795 -787.406,3975.7852 C -779.20667,3978.6127 -775.30681,3986.4966 -771.51464,3993.7085 C -767.59646,4002.3252 -763.97371,4011.1145 -761.28278,4020.1968 C -758.33016,4030.8911 -756.00116,4041.6603 -754.45702,4052.6453 C -753.8469,4060.1298 -752.49473,4067.7012 -753.15067,4075.2382 C -753.56163,4079.9602 -754.35264,4081.8097 -755.6847,4086.4162 C -759.63581,4099.8922 -767.97493,4107.5185 -779.14114,4115.2596 C -789.42167,4120.0831 -813.93638,4143.7077 -833.14243,4139.7714 C -840.83014,4138.1959 -847.99964,4133.9503 -854.7172,4130.1577 C -866.84499,4122.2979 -879.0489,4114.5427 -891.15113,4106.6326 C -895.93554,4104.5456 -900.374,4099.3159 -905.91919,4099.062 C -906.52735,4099.0342 -908.13337,4100.0659 -907.60686,4099.7602 C -895.57077,4092.7732 -883.45362,4085.9268 -871.37699,4079.0101 C -863.12141,4083.2186 -855.44967,4088.3857 -847.51323,4093.1562 C -840.37911,4097.1415 -832.84671,4100.1207 -824.84308,4101.7379 C -823.84506,4101.8797 -819.33229,4102.5754 -818.25571,4102.5177 C -807.62902,4101.9474 -795.8766,4097.15 -786.03748,4093.669 C -772.38979,4088.2048 -758.285,4083.7908 -744.87363,4077.7321 C -729.31466,4070.7031 -714.24814,4062.3269 -699.30822,4054.0907 C -706.82702,4058.349 -714.08595,4063.103 -721.86463,4066.8658 C -725.99651,4068.8645 -714.10799,4061.9545 -710.29207,4059.4038 C -706.86928,4057.116 -703.47606,4054.7811 -700.15178,4052.3523 C -691.0617,4045.7109 -683.26383,4038.3449 -675.52143,4030.2108 C -656.72052,4008.6098 -644.90018,3982.6692 -634.31312,3956.3832 C -616.76909,3909.2871 -606.52887,3859.9894 -596.45337,3810.8867 C -592.89588,3793.4949 -588.62007,3776.253 -585.13144,3758.8467 C -584.46233,3755.5082 -583.68523,3752.1802 -583.30578,3748.7965 C -583.18221,3747.6946 -584.61358,3746.0042 -583.63319,3745.4864 C -572.10686,3739.3981 -559.69317,3735.163 -547.72316,3730.0014 C -549.57819,3732.5713 -551.66475,3734.9891 -553.28825,3737.7113 C -557.32003,3744.4714 -564.442,3759.7232 -567.45914,3766.4429 C -574.475,3782.0684 -580.64762,3798.0412 -586.8843,3813.9865 C -598.71522,3843.0536 -608.343,3872.8562 -615.45827,3903.4093 C -619.09659,3922.2 -624.49811,3940.5461 -629.28488,3959.0548 C -634.12284,3974.8908 -636.49456,3991.1892 -637.72994,4007.6504 C -639.38733,4022.3024 -640.66003,4036.9378 -640.13443,4051.6862 C -638.70442,4061.5698 -640.32332,4065.8398 -629.52422,4067.6885 C -619.85953,4068.148 -609.7729,4070.0504 -600.13485,4068.1274 C -592.10081,4066.5245 -587.08282,4063.765 -579.52161,4060.4373 C -575.62309,4058.0983 -563.66787,4051.5823 -567.82605,4053.4204 C -575.81858,4056.9535 -582.68945,4063.0698 -591.07088,4065.5427 C -595.40815,4066.8224 -583.88711,4060.0431 -580.4225,4057.1369 C -570.28606,4048.6342 -562.00078,4039.0992 -553.59878,4028.938 C -538.97397,4010.1091 -527.02742,3989.3696 -518.0921,3967.2886 C -517.98613,3965.6928 -513.74312,3957.9336 -517.11658,3956.2539 C -519.26149,3955.1859 -524.247,3957.2204 -526.26145,3957.6863 C -530.37082,3959.0339 -534.18567,3960.537 -537.98851,3962.5819 C -539.27743,3963.275 -543.13894,3965.3626 -541.86965,3964.6342 C -507.2682,3944.7771 -500.71292,3939.3981 -515.50864,3950.6872 C -529.11477,3962.9255 -538.91441,3978.3865 -546.67999,3994.7964 C -549.65853,4002.8648 -553.3573,4011.7364 -551.78969,4020.4964 C -547.92007,4026.2664 -541.00537,4028.2252 -534.61503,4029.6895 C -514.01908,4032.8313 -493.20276,4034.6937 -472.48901,4031.9977 C -465.96381,4030.4638 -464.29303,4030.5338 -458.50843,4027.509 C -456.79787,4026.6146 -451.93801,4023.4657 -453.64906,4024.3592 C -464.29454,4029.9184 -474.20787,4036.9866 -485.33067,4041.5159 C -487.4564,4042.3815 -482.59075,4037.8008 -481.58821,4035.7361 C -480.34191,4033.1694 -479.61265,4030.3824 -478.62488,4027.7056 C -473.16926,4008.8968 -471.5531,3989.2768 -470.52112,3969.8042 C -470.45122,3960.2198 -470.65798,3952.6267 -463.10926,3945.9953 C -450.09835,3938.6284 -437.22389,3931.0152 -424.07654,3923.8947 C -420.34474,3921.8736 -414.56996,3922.0689 -410.53834,3921.0605 C -410.14292,3920.9616 -398.30446,3917.4371 -398.00158,3917.3471 C -393.2306,3916.3339 -387.35037,3913.0059 -382.40676,3915.5438 C -377.4123,3918.1077 -375.38015,3923.8931 -373.45794,3928.6722 C -370.51086,3938.3866 -369.90035,3948.5316 -369.62647,3958.6117 C -369.89372,3969.8915 -368.21817,3970.5307 -358.28321,3975.1485 C -351.14247,3978.3239 -344.0038,3982.5194 -336.04803,3983.26 C -328.71842,3983.9423 -316.45164,3983.3083 -309.73523,3983.1181 C -287.28389,3980.8786 -263.82161,3982.7929 -241.94505,3976.2601 C -239.3519,3975.4858 -236.867,3974.3868 -234.32798,3973.4501 C -232.30123,3972.3805 -230.27449,3971.311 -228.24775,3970.2415 L -260.95637,3996.311 C -263.038,3997.206 -265.11962,3998.1011 -267.20124,3998.9961 C -291.55767,4006.3373 -317.25795,4005.0151 -342.39753,4007.0134 C -351.3456,4007.3478 -361.39181,4008.165 -370.44132,4007.088 C -378.63981,4006.1124 -385.85111,4001.3938 -393.29471,3998.2651 C -403.39538,3993.2747 -407.95176,3989.7278 -407.19616,3977.8437 C -407.2965,3968.2246 -407.5648,3958.5006 -410.20026,3949.1788 C -415.36591,3935.9826 -418.99936,3939.63 -431.14983,3942.906 C -437.2542,3944.6706 -443.36109,3946.1564 -449.52533,3947.6707 C -464.47898,3951.3441 -484.16912,3965.5823 -423.62056,3930.5383 C -433.37468,3935.2647 -432.89808,3940.8449 -433.26539,3951.1064 C -434.62558,3970.8631 -436.41028,3990.7186 -441.04436,4010.0142 C -441.45902,4011.4926 -444.45053,4023.85 -446.54714,4025.4217 C -465.24496,4039.4384 -482.99654,4053.1024 -505.7717,4056.7301 C -526.93148,4058.5466 -548.11779,4056.5139 -569.09677,4053.4861 C -577.52438,4051.2656 -584.6326,4048.4771 -589.14815,4040.5409 C -591.49032,4030.9005 -587.89098,4021.1537 -584.66023,4012.0988 C -576.92244,3995.3837 -567.23566,3979.6101 -554.3209,3966.3468 C -537.96194,3951.5512 -550.24044,3962.0444 -508.94085,3938.2513 C -503.86174,3935.3252 -498.15409,3933.552 -492.45816,3932.3266 C -478.8618,3931.1642 -475.90335,3937.3981 -480.29167,3949.835 C -489.48716,3972.2789 -501.64532,3993.3961 -516.03895,4012.9218 C -521.51726,4019.8019 -526.78571,4026.7949 -532.96023,4033.0893 C -555.29579,4055.8588 -584.13218,4070.4334 -611.72449,4085.8361 C -620.95228,4089.4803 -624.04531,4091.357 -633.6113,4092.8049 C -643.72295,4094.3354 -654.20827,4092.5546 -664.26204,4091.5851 C -665.89197,4091.0329 -667.60854,4090.69 -669.15181,4089.9285 C -676.42905,4086.3377 -676.62249,4077.7964 -677.39288,4070.8169 C -677.7926,4055.9333 -676.93296,4041.0696 -675.03893,4026.2965 C -673.69369,4009.6175 -671.85353,3992.9614 -666.70267,3976.9457 C -661.91563,3958.3208 -656.51104,3939.8609 -652.2733,3921.0958 C -644.80144,3890.3958 -635.44435,3860.2349 -623.50682,3830.9541 C -612.20412,3802.2065 -600.55109,3773.5849 -587.03479,3745.79 C -573.36574,3739.2614 -560.24959,3731.4198 -546.02765,3726.2042 C -544.58955,3725.6769 -545.90434,3729.2864 -546.15313,3730.7978 C -546.7304,3734.3048 -547.68596,3737.7391 -548.49597,3741.1998 C -552.6062,3758.7601 -557.22284,3776.1976 -561.14004,3793.804 C -571.63271,3842.7584 -581.86291,3891.9079 -597.80395,3939.451 C -602.31033,3951.545 -604.1888,3957.444 -609.53068,3968.7769 C -617.13945,3984.9192 -626.68349,4000.1928 -637.56691,4014.3141 C -644.37002,4021.8939 -645.6202,4023.7768 -653.31022,4030.4141 C -676.47573,4050.4086 -705.12898,4063.6197 -730.81407,4079.4761 C -759.05572,4094.6965 -787.83464,4108.7537 -818.36604,4118.8512 C -831.50459,4123.3398 -845.57228,4129.2498 -859.6264,4125.8164 C -867.81459,4123.6769 -875.5905,4120.3734 -882.83163,4115.9646 C -887.51369,4113.05 -892.11027,4109.951 -896.93699,4107.2766 C -899.74046,4105.7233 -903.87395,4103.9435 -906.40027,4101.8348 C -907.49359,4100.9223 -908.27716,4099.6924 -909.2156,4098.6212 C -871.84969,4073.8186 -881.06487,4067.5911 -855.77296,4083.9609 C -843.9023,4091.8989 -832.08979,4099.965 -819.91595,4107.4123 C -813.4754,4110.7147 -806.65302,4114.6001 -799.222,4115.1145 C -785.24356,4116.0821 -758.15368,4094.1765 -818.12144,4130.484 C -807.51127,4123.87 -797.66111,4116.7958 -793.63638,4104.3518 C -792.96359,4102.2847 -790.97818,4096.5471 -790.64,4094.1989 C -789.59214,4086.9231 -791.25882,4079.4375 -791.56939,4072.1835 C -792.95242,4061.374 -795.36229,4050.8756 -798.33426,4040.4059 C -800.81556,4031.5552 -804.31206,4023.0201 -808.0391,4014.6278 C -810.34193,4010.3552 -814.69716,4000.1354 -820.93353,4001.902 C -809.50653,3995.2273 -798.01776,3988.6573 -786.65253,3981.878 C -785.88828,3981.4221 -788.32529,3982.501 -789.11055,3982.9197 C -792.53441,3984.745 -793.08096,3988.228 -793.54701,3991.7977 C -794.88282,3997.2576 -797.11244,4002.1478 -801.67719,4005.6849 C -804.27059,4011.3963 -806.44309,4017.2936 -809.5223,4022.7857 C -814.78377,4031.0054 -820.60913,4038.8606 -825.87691,4047.0791 C -826.82021,4048.5114 -830.67007,4054.4908 -831.84597,4055.7344 C -832.97278,4056.9262 -834.44628,4057.7357 -835.70049,4058.7926 C -839.65697,4062.1264 -843.33123,4065.8082 -847.55549,4068.8231 C -866.59572,4083.098 -886.85996,4094.8476 -908.13968,4105.9105 C -915.12185,4109.5435 -922.06727,4114.0488 -930.2654,4112.6358 C -936.77296,4111.232 -942.58382,4108.8216 -944.22839,4101.7032 C -945.12244,4094.7425 -944.09937,4087.681 -942.99379,4080.7897 C -940.78119,4070.1146 -937.57625,4059.672 -933.41112,4049.5904 C -930.65318,4042.9607 -927.96457,4036.3649 -924.90016,4029.8924 C -924.51283,4029.0743 -924.73844,4027.7858 -923.94484,4027.3505 C -911.18645,4020.3519 -897.8818,4014.3989 -884.85028,4007.9231 C -886.18021,4014.5306 -890.67605,4020.2875 -894.71474,4025.5058 C -898.76723,4032.4619 -899.06551,4040.6107 -900.83964,4048.3407 C -903.29802,4057.8751 -906.01312,4067.242 -913.30404,4074.3388 C -932.22017,4094.7726 -957.81779,4107.4356 -983.31294,4118.1036 C -998.00301,4122.9526 -1013.1685,4125.8523 -1028.1947,4129.4635 C -1040.6955,4132.3275 -1053.106,4134.1921 -1065.976,4132.8527 C -1075.7103,4132.373 -1085.3764,4131.6783 -1094.6852,4128.5261 C -1102.0985,4126.5107 -1109.7299,4125.7667 -1117.1395,4123.7178 C -1125.6345,4121.6721 -1134.3161,4119.8149 -1141.9658,4115.3879 C -1149.7236,4110.3067 -1156.2258,4103.9951 -1162.2678,4096.9635 L -1125.7432,4075.4027 z" />
    <path
       style="fill:#000000;fill-opacity:1;fill-rule:nonzero;stroke:none;stroke-width:1px;stroke-linecap:butt;stroke-linejoin:miter;stroke-opacity:1"
       id="path2515"
       d="M -883.97086,3920.1007 C -884.2126,3929.7332 -883.40418,3939.4686 -881.09957,3948.832 L -918.16313,3968.8934 C -920.68065,3959.2603 -921.45129,3949.2807 -921.74343,3939.3468 L -883.97086,3920.1007 z" />
    <path
       style="fill:#000000;fill-opacity:1;fill-rule:nonzero;stroke:none;stroke-width:1px;stroke-linecap:butt;stroke-linejoin:miter;stroke-opacity:1"
       id="path2517"
       d="M -697.52937,3857.1521 C -672.62281,3858.6035 -647.83087,3856.2581 -622.99264,3854.9019 C -584.65738,3852.283 -546.68668,3846.2121 -508.93226,3839.2637 C -477.35913,3832.4454 -446.24952,3823.5965 -415.29244,3814.4164 L -447.53588,3839.2708 C -478.44795,3848.138 -509.40384,3857.1139 -540.96031,3863.4147 C -578.96404,3870.0728 -617.1357,3876.0328 -655.63749,3878.9328 C -680.92748,3880.7123 -706.16302,3882.2321 -731.53419,3881.858 L -697.52937,3857.1521 z" />
    <path
       style="fill:#000000;fill-opacity:1;fill-rule:nonzero;stroke:none;stroke-width:1px;stroke-linecap:butt;stroke-linejoin:miter;stroke-opacity:1"
       id="path2519"
       d="M -1075.3964,4442.5287 C -1052.7783,4421.8618 -1032.6078,4398.6332 -1012.9284,4375.1971 C -992.17614,4350.1378 -976.02914,4321.8681 -961.23223,4293.0217 C -945.66095,4261.6242 -935.82116,4227.9908 -926.4866,4194.3533 C -924.13987,4180.4284 -914.89404,4164.445 -915.49423,4150.3388 C -917.17753,4146.9894 -920.38532,4148.1519 -922.98759,4149.7353 C -923.79467,4150.2264 -926.25029,4151.6418 -925.42845,4151.1758 C -914.17773,4144.7968 -902.94321,4138.3893 -891.70059,4131.9961 C -899.8212,4137.3184 -906.98743,4143.9573 -914.47573,4150.1143 C -924.05142,4157.2983 -932.6171,4165.0995 -939.15572,4175.1586 C -949.07181,4193.5662 -950.00691,4214.8738 -950.90198,4235.3077 C -951.403,4262.6485 -947.69692,4289.7631 -944.94908,4316.8966 C -943.25276,4332.6894 -942.02093,4348.5247 -941.35556,4364.3936 C -940.40184,4374.5666 -939.57759,4384.7735 -937.44203,4394.7795 C -935.94484,4399.9615 -935.20022,4408.2762 -929.86804,4411.3942 C -928.97152,4411.9185 -927.9026,4412.0661 -926.91989,4412.4021 C -921.19569,4413.7368 -914.8731,4414.67 -909.32986,4411.9225 C -907.72008,4411.1247 -903.33263,4407.9905 -904.93686,4408.7995 C -915.19056,4413.9701 -925.19527,4419.6203 -935.32447,4425.0307 C -917.1431,4404.0608 -908.38028,4377.1697 -898.86968,4351.5643 C -894.49525,4337.3502 -888.06398,4324.1294 -879.06746,4312.3211 C -862.6408,4294.0474 -839.12397,4284.0574 -817.92109,4272.432 C -816.3312,4271.5878 -814.72207,4270.7789 -813.15144,4269.8993 C -810.93982,4268.6609 -808.9895,4266.8311 -806.56049,4266.1066 C -803.58687,4265.2196 -803.20845,4271.3845 -803.25236,4272.0463 C -803.31777,4273.0322 -804.78895,4273.2889 -805.55725,4273.9101 C -813.81828,4280.6548 -820.96567,4288.3039 -826.97851,4297.0928 C -833.54604,4307.2238 -836.65475,4318.8662 -839.66866,4330.4054 C -841.58352,4338.1307 -843.79172,4345.9194 -842.78815,4353.9128 C -839.27547,4365.1153 -830.78909,4368.2356 -820.68767,4372.2339 C -798.89698,4381.2227 -779.49348,4380.3171 -756.47748,4378.7966 C -750.81067,4377.9119 -741.72187,4376.856 -736.12686,4374.7003 C -733.33271,4373.6237 -725.56367,4369.0541 -728.2092,4370.4567 C -737.59326,4375.4322 -746.39852,4381.6861 -756.34253,4385.4187 C -759.31117,4386.5331 -751.83036,4380.9527 -749.7638,4378.5477 C -747.6572,4376.0961 -745.81516,4373.4291 -743.84084,4370.8698 C -736.29576,4360.138 -730.87651,4348.2317 -728.20405,4335.4067 C -727.26428,4327.7683 -725.85106,4319.5665 -729.33091,4312.3344 C -730.13941,4310.6541 -731.25339,4309.1387 -732.21463,4307.5409 C -740.03942,4296.5135 -751.0583,4290.2786 -763.8935,4286.9182 C -772.70907,4285.6373 -781.78807,4284.1657 -790.74133,4284.5553 C -795.64542,4284.7688 -798.4832,4285.6572 -803.22428,4286.7579 C -805.15806,4287.8163 -810.95222,4291.0045 -809.02562,4289.9331 C -756.47515,4260.7082 -773.82293,4267.8431 -783.65022,4277.285 C -787.80414,4281.2761 -791.09724,4285.9578 -794.31119,4290.6974 C -799.65911,4300.4056 -800.53803,4302.1803 -791.24275,4308.5038 C -789.36593,4309.2291 -787.547,4310.127 -785.61228,4310.6796 C -773.47867,4314.1448 -760.29674,4314.7852 -747.80624,4315.5894 C -733.77341,4316.4928 -726.12355,4316.6106 -712.16459,4317.0356 C -695.77412,4317.0237 -678.84616,4319.1645 -662.9184,4313.9991 C -656.46848,4311.9073 -652.86948,4309.3932 -647.1576,4306.0291 C -702.44865,4337.772 -674.25435,4324.0847 -666.11753,4309.9867 C -664.19209,4306.6506 -664.10959,4305.6565 -662.98158,4302.0032 C -661.33103,4294.4823 -661.27641,4286.7315 -661.49007,4279.069 C -663.54396,4264.2324 -662.28386,4275.6959 -623.65782,4259.9681 C -622.82476,4259.6289 -623.77295,4261.7634 -623.81443,4262.6619 C -623.89411,4264.388 -623.97329,4266.1143 -624.02129,4267.8416 C -624.15669,4272.7136 -624.14666,4276.0154 -624.17306,4280.9035 C -624.76832,4296.7629 -624.41106,4312.5245 -622.27132,4328.2488 C -620.96741,4335.7192 -618.7296,4343.4875 -611.52348,4347.0239 C -600.09905,4348.6383 -588.2753,4347.7339 -577.1345,4344.8617 C -575.06184,4344.2721 -572.95289,4343.7978 -570.91651,4343.093 C -563.73659,4340.6081 -556.98345,4336.3606 -557.88135,4336.8743 C -566.63182,4341.8801 -575.27574,4347.0925 -584.25054,4351.684 C -587.91259,4353.5575 -577.2805,4347.312 -573.84917,4345.0434 C -570.60359,4342.8976 -567.43141,4340.6428 -564.22253,4338.4425 C -556.12685,4332.6124 -547.66623,4326.8512 -541.87687,4318.5076 C -535.13333,4308.7888 -532.18314,4297.585 -529.12391,4286.3629 C -527.85,4277.4656 -522.2316,4257.5125 -525.67211,4248.8471 C -513.41659,4243.1977 -501.45966,4236.8493 -488.90554,4231.8987 C -487.62596,4231.3942 -490.6808,4234.0378 -491.26961,4235.2808 C -492.12029,4237.0768 -492.65402,4239.0117 -493.18215,4240.9275 C -495.13137,4247.9984 -495.97675,4255.2854 -496.86849,4262.5414 C -498.33268,4273.4313 -496.16708,4284.391 -494.16735,4295.0857 C -492.30737,4302.5125 -489.57671,4310.3974 -482.66332,4314.3959 C -469.5904,4318.6613 -455.88066,4319.8669 -442.26115,4321.0307 C -426.67568,4322.3663 -414.61583,4320.8599 -400.62198,4313.8529 C -398.08843,4312.5843 -390.70849,4308.3601 -393.17447,4309.7555 C -403.08649,4315.3644 -413.03181,4320.9142 -422.96048,4326.4935 C -412.95523,4319.2176 -409.87075,4310.3797 -408.05027,4298.6418 C -406.36165,4286.6797 -406.84926,4275.8633 -410.51414,4264.3623 C -412.24581,4260.3828 -416.85843,4251.2016 -422.56202,4251.8831 C -423.41056,4251.9845 -424.11724,4252.5919 -424.89485,4252.9464 C -437.91854,4263.9968 -423.36585,4251.3141 -395.42264,4237.4583 C -394.01214,4236.7589 -397.61859,4239.7226 -398.59357,4240.9587 C -401.76701,4244.9823 -403.43426,4249.5319 -405.28154,4254.251 C -410.58553,4271.3555 -412.73328,4289.2034 -414.3874,4306.9694 C -414.16075,4313.7564 -418.2696,4328.1909 -411.78178,4333.0417 C -410.9619,4333.2633 -410.17076,4333.7402 -409.32213,4333.7065 C -407.74019,4333.6435 -406.21054,4333.1155 -404.66809,4332.7586 C -390.39033,4329.4552 -378.19208,4324.3013 -364.77033,4318.6163 C -361.70185,4316.9897 -352.56592,4311.9851 -355.56488,4313.7365 C -402.75462,4341.2965 -385.38544,4331.8372 -374.78375,4323.1957 C -368.04403,4317.7021 -362.35325,4311.4841 -356.77909,4304.8597 C -346.99336,4293.2162 -344.00917,4278.6333 -340.88592,4264.1707 C -338.21696,4250.6649 -336.79523,4236.9637 -336.15132,4223.2246 C -333.45891,4203.3287 -316.34307,4202.087 -293.16833,4193.1015 C -290.36773,4192.0156 -287.41636,4194.8778 -284.66319,4196.0789 C -274.4093,4200.5521 -271.40818,4203.1084 -261.68119,4209.3988 C -241.69818,4225.8737 -221.87799,4243.2678 -205.79388,4263.6837 C -197.61099,4275.7932 -194.95973,4289.9667 -193.25102,4304.1902 C -193.24703,4313.7275 -195.25613,4323.6981 -202.33239,4330.6706 C -204.76747,4333.07 -207.64174,4334.9784 -210.29641,4337.1323 C -237.9663,4354.502 -266.20242,4371.2708 -297.50582,4381.0006 C -302.22893,4382.4687 -306.94767,4384.0356 -311.80806,4384.9519 C -317.47863,4386.0208 -323.27269,4386.2763 -329.005,4386.9385 C -368.58023,4387.4609 -408.5143,4385.4944 -447.22218,4376.814 C -449.99813,4375.331 -462.80521,4373.748 -464.87018,4370.0756 C -472.49835,4356.5095 -427.43104,4347.5099 -423.16787,4346.1724 C -419.6504,4345.0689 -416.02429,4347.9974 -412.4525,4348.9098 C -359.79421,4364.1583 -306.52834,4377.04 -252.79858,4387.8704 C -232.73533,4391.9727 -212.44754,4395.4594 -191.88837,4395.0263 C -176.78147,4394.7081 -161.96159,4392.2838 -147.19168,4389.3646 C -143.9386,4388.286 -140.56876,4387.5105 -137.43246,4386.1287 C -134.81627,4384.976 -127.50023,4380.4651 -130.02723,4381.802 C -139.98009,4387.0675 -149.36896,4393.4738 -159.71502,4397.9173 C -161.85715,4398.8373 -156.46799,4394.5378 -155.17078,4392.6007 C -152.08867,4387.9983 -151.12784,4383.9485 -149.35913,4378.7343 C -146.57389,4369.6335 -144.76705,4360.2941 -143.25946,4350.9124 L -105.56803,4332.4728 C -107.16938,4342.0584 -109.09239,4351.5868 -111.71428,4360.9532 C -113.1834,4366.1934 -116.1663,4379.0455 -120.98338,4382.3989 C -134.28961,4391.6619 -148.48007,4399.5921 -162.4457,4407.8274 C -164.8789,4409.2622 -167.47566,4410.4384 -170.13736,4411.3842 C -173.30604,4412.5102 -176.62919,4413.1419 -179.87511,4414.0208 C -194.63172,4416.4688 -209.45111,4418.543 -224.46162,4418.4955 C -244.79977,4418.4312 -264.72261,4414.3663 -284.47062,4409.8975 C -338.57491,4398.145 -392.33914,4384.9744 -446.25661,4372.4068 C -449.98644,4371.7711 -459.98248,4373.3072 -457.44609,4370.4996 C -449.02964,4361.1834 -435.6139,4357.869 -425.9176,4349.8933 C -424.83814,4349.0054 -428.20614,4348.255 -429.15621,4347.2298 C -429.73689,4346.6032 -427.80764,4348.2991 -427.04262,4348.6793 C -422.58963,4350.8925 -418.34367,4351.9726 -413.5404,4353.5025 C -375.42245,4362.7463 -335.87728,4365.1537 -296.77077,4362.8477 C -291.05035,4361.9549 -285.26731,4361.3979 -279.60953,4360.1692 C -272.07023,4358.5319 -258.2754,4353.6912 -251.21271,4350.8733 C -246.45997,4348.9771 -233.39715,4341.2493 -237.14122,4344.7373 C -243.49856,4350.6598 -252.08336,4353.6226 -259.3221,4358.4281 C -262.70435,4360.6734 -252.25687,4354.4272 -248.72425,4352.4268 C -246.09535,4350.5952 -243.32246,4348.9547 -240.83755,4346.9321 C -233.69965,4341.1222 -231.06478,4332.5184 -230.45037,4323.6394 C -231.67992,4310.0661 -233.96749,4296.6081 -241.50939,4284.9304 C -256.72751,4264.5091 -275.75819,4246.9436 -295.87993,4231.4542 C -304.15949,4226.536 -309.73051,4222.4601 -318.894,4219.6826 C -321.4465,4218.909 -328.79218,4220.3156 -326.8119,4218.5289 C -317.48341,4210.1124 -305.78402,4204.7652 -295.07586,4198.193 C -294.11868,4197.6055 -296.9433,4199.5591 -297.4966,4200.5365 C -298.13894,4201.6711 -298.19034,4203.0502 -298.53721,4204.307 C -299.34998,4218.3271 -300.94659,4232.2776 -303.54366,4246.088 C -306.44669,4260.9487 -308.8444,4276.2771 -318.44027,4288.5302 C -339.51551,4314.9908 -365.39479,4330.0241 -397.11915,4344.1369 C -407.62774,4348.4797 -418.04108,4352.9544 -429.10357,4355.744 C -434.22847,4357.0364 -439.33622,4358.4936 -444.61788,4357.1685 C -445.84567,4356.8605 -446.81644,4355.9132 -447.91571,4355.2856 C -448.73077,4354.3879 -449.70676,4353.6135 -450.36089,4352.5926 C -455.32253,4344.849 -451.43773,4333.8579 -451.61624,4325.5041 C -449.93393,4307.5253 -447.46806,4289.5823 -443.29913,4271.9958 C -442.52738,4269.6507 -440.82517,4264.1816 -439.68507,4261.7347 C -431.04756,4243.1969 -409.73152,4233.6261 -390.83033,4227.6627 C -381.2644,4229.0036 -377.33126,4235.8287 -373.73132,4244.1507 C -369.79915,4256.2009 -368.70543,4267.4727 -370.40448,4280.0928 C -371.79594,4292.0729 -374.4375,4303.0753 -384.03192,4311.2879 C -394.52624,4317.4718 -423.7324,4337.6975 -442.17793,4342.8786 C -453.15749,4345.9626 -464.46032,4345.653 -475.72226,4344.9251 C -490.05711,4343.7936 -505.00525,4343.1945 -518.31583,4337.1995 C -525.56543,4331.7446 -529.18928,4323.5967 -531.27233,4314.8835 C -533.43686,4303.8047 -535.7526,4292.3437 -534.32634,4281.0563 C -533.16934,4271.5577 -531.88364,4262.1849 -529.58379,4252.8896 C -529.16898,4251.2131 -529.82864,4248.7455 -528.34693,4247.8581 C -515.63587,4240.2459 -501.75127,4234.7913 -488.45344,4228.2579 C -484.64389,4239.7516 -490.46553,4257.1111 -492.01162,4268.6556 C -494.99917,4280.1098 -497.72185,4292.0099 -503.8793,4302.3007 C -509.27073,4311.3113 -517.55397,4317.4882 -525.98571,4323.4025 C -531.98138,4327.5996 -539.52094,4333.0342 -545.79499,4336.7847 C -566.38776,4349.0944 -586.65619,4364.4832 -610.44209,4370.2057 C -622.11315,4372.4682 -635.68845,4373.8458 -647.12255,4370.0702 C -654.75582,4364.8437 -657.93509,4356.704 -659.23185,4347.6995 C -661.28883,4331.7994 -661.82867,4315.9304 -661.47519,4299.8958 C -661.47158,4293.8845 -661.50783,4287.8838 -661.66984,4281.8747 C -661.69391,4280.982 -662.5022,4279.6641 -661.74134,4279.1966 C -649.43951,4271.637 -636.53282,4265.0949 -623.67454,4258.5263 C -623.30366,4258.3368 -623.70662,4259.3586 -623.72267,4259.7747 C -623.77029,4267.8002 -623.52984,4275.8815 -624.92915,4283.8212 C -625.75282,4287.5976 -625.93312,4289.429 -627.58249,4292.9671 C -636.87916,4312.9098 -664.06719,4322.3549 -679.54691,4332.1291 C -686.07823,4335.42 -688.52955,4337.068 -695.84808,4338.9496 C -711.87302,4343.0696 -728.51087,4340.7746 -744.79353,4340.5716 C -754.68092,4340.1952 -770.8865,4339.6231 -780.63058,4339.0641 C -793.72949,4338.3127 -807.78841,4337.9855 -820.43279,4333.9383 C -822.65566,4333.2268 -824.70228,4332.0512 -826.83702,4331.1076 C -837.18056,4323.2547 -838.69975,4319.4598 -832.81767,4307.6003 C -817.91528,4283.6737 -798.75102,4271.4631 -769.82016,4261.4793 C -756.31942,4259.2643 -742.66346,4260.2541 -729.32395,4263.2672 C -715.84182,4267.5585 -704.30279,4274.8235 -695.92558,4286.4813 C -693.34836,4290.6872 -691.7427,4292.6622 -690.34521,4297.4139 C -688.48209,4303.7488 -690.08212,4310.5519 -690.23698,4316.9831 C -692.7564,4330.4851 -698.28067,4343.0103 -705.84079,4354.4834 C -707.18359,4356.343 -715.83604,4368.674 -717.83581,4370.0533 C -731.62068,4379.5608 -746.18447,4387.8997 -760.66622,4396.3077 C -763.29384,4397.8333 -766.17773,4398.9173 -769.08296,4399.8069 C -774.96508,4401.6081 -783.59649,4402.3561 -789.49602,4403.0782 C -813.083,4404.2442 -833.06847,4404.7268 -855.29327,4395.3994 C -866.83829,4390.6398 -875.97312,4386.2402 -880.16925,4373.7005 C -881.75443,4365.1037 -879.92042,4356.8708 -877.61057,4348.5196 C -874.44973,4336.6798 -871.6174,4324.5748 -865.29254,4313.9222 C -862.08664,4308.6664 -858.81739,4303.2056 -854.44303,4298.7949 C -853.31574,4297.6582 -851.90296,4296.8371 -850.73817,4295.7389 C -849.63252,4294.6965 -848.67769,4293.5049 -847.64745,4292.3878 C -846.722,4291.5441 -845.79655,4290.7003 -844.8711,4289.8565 C -841.7881,4287.0082 -842.8178,4286.7022 -839.09977,4292.1126 C -838.68055,4292.7226 -850.00269,4298.346 -850.64103,4298.833 C -862.9072,4305.7029 -875.92293,4313.0281 -824.34608,4283.3955 C -822.71409,4282.4578 -827.57772,4285.3313 -829.12476,4286.4033 C -833.13915,4289.1851 -837.00238,4292.3259 -840.42717,4295.8041 C -849.95798,4307.234 -857.177,4320.1238 -861.78712,4334.3411 C -871.80886,4359.9651 -880.3112,4386.7321 -896.66784,4409.2036 C -910.32673,4417.866 -923.83806,4426.7655 -937.64451,4435.1907 C -945.17592,4439.7867 -954.33723,4438.4254 -962.2054,4435.7114 C -963.48713,4434.9665 -964.88271,4434.3898 -966.05059,4433.4767 C -971.59678,4429.1404 -972.96629,4420.9931 -974.52093,4414.6604 C -976.68539,4404.4249 -977.82948,4394.0113 -978.79185,4383.6003 C -979.01558,4367.649 -979.83059,4351.7131 -981.22292,4335.8195 C -983.71538,4308.4922 -987.59827,4281.217 -987.38161,4253.7249 C -986.74941,4232.9724 -986.16577,4211.4326 -977.54884,4192.1656 C -971.51372,4181.3773 -963.34168,4172.9871 -953.30675,4165.7633 C -945.89646,4159.6404 -938.67754,4153.3301 -931.24178,4147.2624 C -918.21607,4139.7931 -905.29385,4132.1404 -892.16464,4124.8547 C -886.497,4121.7095 -880.21049,4125.6124 -877.9673,4130.9198 C -877.84914,4132.4216 -877.51294,4133.922 -877.61283,4135.4252 C -878.51301,4148.9699 -886.99771,4163.4432 -889.50471,4176.793 C -899.55329,4210.7567 -909.71436,4244.7766 -925.24081,4276.7499 C -939.52214,4305.6653 -954.71358,4334.4729 -975.51603,4359.3314 C -995.13081,4382.4094 -1015.1679,4405.1799 -1036.4013,4426.789 L -1075.3964,4442.5287 z" />
    <path
       style="fill:#000000;fill-opacity:1;fill-rule:nonzero;stroke:none;stroke-width:1px;stroke-linecap:butt;stroke-linejoin:miter;stroke-opacity:1"
       id="path2521"
       d="M -667.50961,4511.8662 C -673.71208,4533.4385 -674.34088,4556.3453 -674.80461,4578.6611 C -674.72585,4602.5714 -673.95498,4626.4725 -673.42537,4650.3755 C -673.31906,4675.0046 -664.36052,4697.8456 -654.29849,4719.9102 C -651.78995,4724.5832 -645.72665,4737.4237 -640.80509,4740.982 C -632.26997,4747.1528 -616.89697,4747.2567 -607.83711,4747.0936 C -586.94276,4746.7175 -565.31299,4743.0686 -544.73192,4740.2545 C -521.70899,4735.9412 -505.66313,4733.8113 -483.63616,4726.4954 C -475.67978,4723.8528 -468.66681,4718.0813 -460.35636,4716.9752 C -454.36546,4716.1778 -472.27518,4729.9928 -476.34514,4725.5249 C -480.29093,4721.1934 -467.18218,4718.1415 -463.25558,4713.7925 C -459.44443,4709.5714 -456.59529,4704.5723 -453.26515,4699.9622 C -439.89302,4674.8787 -434.063,4646.9092 -430.92069,4618.9038 C -429.72341,4606.6883 -429.69683,4594.4102 -429.92145,4582.1525 C -430.51851,4555.2878 -430.97927,4567.3402 -390.6971,4550.3217 C -382.57321,4592.312 -369.54406,4633.1479 -356.42126,4673.7862 C -340.37398,4725.1317 -317.77621,4774.0009 -298.03092,4823.9421 C -276.33211,4880.7018 -262.03138,4939.9213 -246.71132,4998.6234 C -229.81754,5058.5016 -218.7592,5119.8442 -214.26624,5181.9117 C -213.20314,5196.5978 -212.7966,5211.3242 -212.06177,5226.0304 C -212.99262,5277.5842 -212.06963,5333.7872 -228.04308,5383.4917 C -236.64814,5410.2681 -242.74149,5417.6151 -256.71619,5441.0534 C -268.45958,5456.0281 -281.15246,5477.6931 -299.4381,5486.1355 C -315.65056,5493.6207 -331.59447,5502.9367 -349.18423,5506.0145 C -358.51272,5507.6467 -378.33983,5484.4735 -381.58969,5481.2147 C -387.13747,5473.3607 -393.09524,5465.7807 -398.23305,5457.6525 C -427.72311,5410.9983 -447.54029,5358.5207 -462.38419,5305.6064 C -467.07947,5288.8691 -470.93111,5271.9065 -475.20457,5255.0566 C -493.68793,5174.9067 -502.3203,5092.7825 -497.65574,5010.5363 C -494.15889,4948.8795 -488.79834,4927.6936 -478.45212,4867.038 C -463.81153,4810.5505 -460.26197,4788.5297 -437.98705,4734.8963 C -421.72053,4695.7298 -402.21045,4660.6567 -379.39721,4625.0597 C -358.60709,4592.6196 -346.17582,4577.8824 -323.28175,4548.4658 C -309.18718,4532.0878 -297.61239,4517.1412 -281.17287,4503.2088 C -274.60118,4497.6393 -267.60493,4492.5217 -260.23865,4488.0558 C -242.20704,4477.1241 -223.79819,4466.7929 -205.08257,4457.0786 C -193.3796,4451.0042 -174.40528,4445.05 -161.86947,4440.7867 C -159.43391,4440.0246 -133.2761,4431.6555 -128.73651,4430.8468 C -125.76331,4430.3172 -122.36313,4429.3825 -119.67689,4430.7625 C -108.40913,4436.5513 -130.34029,4463.5826 -132.08444,4466.238 C -150.70402,4493.5396 -170.56665,4520.3021 -185.21714,4550.0613 C -194.44548,4568.8067 -195.61646,4574.2004 -202.27843,4593.6606 C -208.13283,4613.7954 -212.51332,4634.405 -213.31077,4655.4249 C -214.12254,4676.8224 -211.37899,4697.9892 -208.55471,4719.1255 C -206.27781,4734.3484 -202.5752,4749.5123 -196.18372,4763.581 C -193.90405,4768.599 -187.92862,4779.824 -183.34633,4783.4684 C -179.41468,4786.5954 -174.47449,4788.1836 -170.03857,4790.5412 C -161.71521,4792.3454 -153.48924,4794.6793 -145.06847,4795.9536 C -99.655997,4802.8261 -51.850617,4801.7107 -6.3579593,4796.0913 C 1.9109644,4795.0698 10.106263,4793.5216 18.338375,4792.2368 C 3.920652,4804.9379 59.620062,4775.9433 50.600157,4782.6191 C 42.975412,4788.2623 34.725589,4793.7091 25.553364,4796.1284 C 21.706961,4797.1429 31.290192,4790.5133 33.416605,4787.1514 C 40.206692,4776.4161 41.508316,4767.7014 44.903427,4755.4209 C 53.459204,4712.3386 54.13145,4668.2213 52.762374,4624.4776 C 51.046937,4579.1379 46.912825,4533.9689 40.115933,4489.1188 C 37.975118,4482.4746 38.208895,4465.6178 30.905494,4461.1946 C 25.070328,4457.6606 9.8055673,4458.5702 5.3496024,4458.7024 C -2.3697655,4458.9312 -10.069725,4459.6015 -17.779388,4460.0511 C -62.038617,4464.408 -106.36372,4470.0253 -149.36847,4481.6164 C -163.36946,4485.8291 -201.39799,4504.0678 -139.24144,4472.3923 C -137.52325,4471.5167 -142.33385,4474.7416 -143.60167,4476.1947 C -146.7249,4479.7743 -146.23484,4480.269 -146.83348,4484.4867 C -146.43074,4485.6649 -146.28544,4486.9656 -145.62527,4488.0213 C -139.69982,4497.4971 -121.53403,4503.1106 -111.63091,4506.7336 C -93.970049,4514.6378 -74.86759,4515.4683 -55.970357,4517.6296 C -42.001629,4519.0996 -28.292474,4522.9812 -14.169883,4522.7544 C -5.5399598,4522.6158 8.9573724,4521.2227 17.011724,4520.547 C 45.243442,4516.9338 74.104312,4516.6619 101.95645,4510.3017 C 109.20416,4508.6466 116.3135,4506.4352 123.49203,4504.502 C 152.70174,4495.5071 181.77184,4485.623 209.48176,4472.618 C 214.34015,4470.3378 228.3982,4462.4903 223.81054,4465.2753 C 216.28408,4469.8445 208.37111,4473.7442 200.6514,4477.9787 C 213.12908,4468.8352 223.26393,4457.4744 228.31544,4442.6567 C 231.30563,4433.8855 232.08191,4427.298 233.63694,4418.2583 C 234.05799,4414.5748 234.55091,4410.8989 234.9001,4407.2078 C 235.2014,4404.023 235.40903,4400.8294 235.58797,4397.6354 C 235.71162,4395.4283 235.84178,4393.2177 235.80772,4391.0074 C 235.79894,4390.437 234.93946,4389.565 235.46004,4389.3318 C 276.91478,4370.7616 275.18064,4362.6122 269.13676,4387.5601 C 262.97131,4420.1527 258.40001,4453.1846 257.28129,4486.3729 C 256.5045,4509.4172 257.22805,4516.9493 258.16658,4539.6337 C 259.73298,4570.0443 263.50822,4600.2751 270.46579,4629.9173 C 272.6947,4637.739 272.83817,4649.494 281.35113,4653.3524 C 293.65514,4655.2043 306.51912,4650.5273 318.13099,4646.9259 C 327.37239,4643.687 328.30892,4643.7337 336.99176,4639.2005 C 339.91286,4637.6755 348.47085,4632.7254 345.55815,4634.2665 C 336.50418,4639.0567 328.05904,4645.1073 318.56412,4648.9502 C 315.06406,4650.3667 324.49919,4644.2653 327.24826,4641.677 C 330.34287,4638.7632 333.12868,4635.538 336.06888,4632.4686 C 350.95027,4615.0579 364.01382,4595.8295 372.5985,4574.481 C 379.88976,4556.3491 382.22518,4544.7157 387.25828,4525.4914 C 395.98282,4485.5193 401.22484,4444.6974 402.1056,4403.7698 C 402.55503,4382.8857 401.60924,4366.7664 400.78176,4346.033 C 399.40486,4325.6604 397.91082,4305.2648 395.09311,4285.0298 C 394.62153,4281.6432 394.1797,4278.2434 393.42511,4274.9085 C 393.17406,4273.799 391.088,4272.3014 392.09216,4271.7669 C 403.88391,4265.4904 416.65551,4261.2597 428.93719,4256.0062 C 428.7674,4259.3217 428.32412,4262.6346 428.42781,4265.9529 C 428.76541,4276.7565 431.31063,4297.2294 432.6596,4306.8901 C 436.7899,4336.4695 442.62982,4365.6426 448.76803,4394.8553 C 454.50675,4419.6159 460.64543,4444.4572 469.78176,4468.2336 C 474.53195,4480.5955 480.35666,4494.1264 488.85926,4504.5312 C 493.46806,4510.171 499.28604,4514.7036 504.49944,4519.7898 C 532.39383,4540.7908 565.48407,4551.8855 598.0484,4563.2166 L 565.74358,4585.0485 C 532.79033,4573.1908 499.21422,4561.7195 470.85839,4540.4654 C 465.40278,4535.1571 459.3,4530.4413 454.49154,4524.5404 C 445.82475,4513.9046 439.95145,4499.9196 435.26754,4487.2417 C 426.35948,4463.1304 420.70318,4437.9307 415.06462,4412.9167 C 406.20017,4370.7251 396.77976,4327.6032 391.63276,4284.7656 C 391.21965,4281.3274 391.10419,4277.86 390.8399,4274.4071 C 403.6339,4266.783 415.78544,4257.9593 429.22189,4251.5347 C 430.49415,4250.9264 429.80064,4254.299 429.96496,4255.6996 C 430.37857,4259.225 430.65482,4262.7654 430.95445,4266.3024 C 432.70478,4286.9636 434.08893,4307.6575 435.15786,4328.3647 C 435.77444,4348.5167 436.57336,4366.4108 436.12541,4386.6403 C 435.21748,4427.6422 430.50626,4468.6157 422.17764,4508.7629 C 417.80498,4527.1459 415.29442,4540.4106 408.8076,4557.9461 C 400.84096,4579.4818 388.20087,4598.896 373.82286,4616.6486 C 369.8039,4621.1862 362.37019,4630.2747 357.00194,4633.7892 C 334.3515,4648.6182 311.39204,4663.9567 285.41295,4672.1928 C 273.15723,4675.7841 258.29542,4681.3861 245.7574,4676.3711 C 236.56098,4669.7574 236.04451,4660.007 233.86705,4649.5639 C 227.772,4619.2212 224.62853,4588.3749 223.53063,4557.4487 C 222.80619,4536.8524 222.06005,4524.5565 222.64228,4503.7685 C 223.56572,4470.7977 228.17774,4438.0948 232.34184,4405.424 C 236.25283,4378.7315 230.97859,4392.0478 273.20859,4369.7183 C 273.95041,4369.3261 273.24803,4371.3982 273.19503,4372.2357 C 272.60249,4381.5986 271.60339,4390.948 270.46909,4400.2575 C 268.45476,4412.5253 266.92829,4425.5411 261.45133,4436.8959 C 256.34618,4447.4799 247.50637,4455.8167 238.67171,4463.223 C 223.18886,4472.3296 207.86437,4481.7111 192.22315,4490.5429 C 183.64946,4495.3841 170.34008,4500.8113 161.41753,4504.3979 C 138.73074,4513.5174 115.61601,4521.4499 92.205575,4528.5089 C 84.778476,4530.4893 77.420054,4532.7479 69.924279,4534.4499 C 41.974763,4540.7962 13.053699,4540.7179 -15.257626,4544.4337 C -24.625119,4545.318 -37.969804,4546.842 -47.712226,4546.8764 C -61.796578,4546.9261 -75.403322,4542.5415 -89.368257,4541.353 C -97.417516,4540.5449 -105.50392,4540.0921 -113.53274,4539.1013 C -124.78348,4537.7129 -135.48107,4533.9751 -145.97637,4529.8499 C -157.60757,4525.3747 -175.57441,4519.7017 -182.49627,4508.4805 C -183.44434,4506.9436 -183.80266,4505.1135 -184.45585,4503.4299 C -184.49211,4501.5367 -184.9193,4499.6102 -184.56461,4497.7502 C -183.97231,4494.644 -180.958,4489.1337 -178.22892,4487.4214 C -156.47987,4473.775 -140.24552,4463.1277 -117.09823,4456.9049 C -74.133053,4446.3721 -30.041437,4441.62 13.859895,4436.7578 C 26.569417,4435.8973 55.162963,4431.3296 66.820741,4440.0434 C 75.36337,4446.4288 73.218971,4461.7161 75.755631,4470.3447 C 81.291991,4515.5903 85.554968,4560.9867 87.654007,4606.534 C 88.005119,4614.5394 88.545151,4622.5387 88.707343,4630.5501 C 89.435099,4666.4974 86.827617,4702.6787 81.013342,4738.1387 C 78.581759,4748.6381 73.89886,4774.2423 63.811805,4781.2596 C 33.910689,4802.0611 18.822799,4810.0211 -12.995912,4815.6913 C -21.0248,4816.7373 -29.027224,4818.0117 -37.082576,4818.8293 C -59.712652,4821.1263 -80.187139,4822.1431 -103.05597,4822.1678 C -126.28744,4822.1928 -153.81974,4821.3356 -176.96994,4818.1378 C -186.04726,4816.884 -194.92879,4814.4828 -203.90821,4812.6553 C -208.8144,4809.9221 -214.27011,4807.9997 -218.62678,4804.4556 C -221.81189,4801.8645 -223.87464,4798.1096 -226.06099,4794.6342 C -236.74921,4777.6443 -240.70104,4757.1013 -243.74428,4737.6326 C -246.44973,4716.254 -249.34144,4694.7431 -248.78612,4673.1254 C -248.23714,4651.7542 -244.0016,4630.8215 -237.94104,4610.3828 C -231.39364,4591.0035 -229.93368,4584.7452 -220.90666,4566.0674 C -206.53436,4536.3295 -186.80443,4509.6901 -168.61392,4482.2746 C -165.20197,4476.9492 -161.74474,4471.6526 -158.37808,4466.2985 C -156.59595,4463.4643 -154.57844,4460.748 -153.16861,4457.7114 C -152.82875,4456.9794 -152.48891,4455.5025 -153.2681,4455.2923 C -162.24436,4452.8709 -184.51787,4463.7252 -193.04294,4465.0548 C -199.988,4467.4766 -207.02311,4469.6541 -213.87812,4472.3202 C -221.21146,4475.1723 -227.79409,4480.4842 -235.58308,4481.5994 C -240.1936,4482.2596 -220.19287,4471.1014 -224.00954,4473.7708 C -231.1244,4478.747 -238.7267,4483.0614 -245.47834,4488.5202 C -262.86518,4502.5779 -274.89684,4517.4941 -289.91039,4534.1927 C -313.87333,4563.8253 -326.8219,4578.5228 -348.491,4611.3679 C -371.84841,4646.7721 -391.79578,4681.9485 -408.41955,4721.0984 C -431.25115,4774.868 -434.70588,4796.2852 -449.71705,4853.0074 C -460.38646,4914.6626 -465.50472,4933.1239 -468.64933,4995.7917 C -472.74832,5077.4792 -463.20412,5158.9365 -444.41864,5238.377 C -440.02175,5255.0872 -436.07519,5271.9225 -431.22797,5288.5078 C -415.98474,5340.664 -395.49412,5392.6744 -365.05573,5438.0181 C -359.80894,5445.8342 -353.69177,5453.0294 -348.00979,5460.5351 C -342.54945,5465.5098 -337.74211,5471.3131 -331.62878,5475.4592 C -327.05,5478.5645 -315.20667,5476.5839 -316.37125,5481.9924 C -318.33557,5491.115 -332.02709,5492.9809 -337.08957,5500.82 C -340.06911,5505.4337 -327.27073,5495.7287 -323.00667,5492.2672 C -310.67672,5482.2579 -301.36373,5468.8032 -291.67151,5456.5096 C -277.15296,5433.3847 -270.93014,5426.3242 -261.86935,5399.7149 C -245.07974,5350.4079 -245.12204,5294.0535 -244.24336,5242.641 C -245.04815,5228.0356 -245.5073,5213.407 -246.65772,5198.8248 C -251.52732,5137.0999 -263.18819,5076.2327 -280.02929,5016.6868 C -295.32875,4958.2144 -310.03101,4899.3455 -332.19459,4842.9979 C -351.88933,4792.9059 -374.01261,4743.7142 -389.88232,4692.1865 C -403.16782,4651.8545 -416.49044,4611.5311 -427.96686,4570.636 C -415.52937,4563.4261 -403.10071,4556.2008 -390.6544,4549.0061 C -390.38437,4548.85 -391.3007,4549.2387 -391.43676,4549.5194 C -391.78186,4550.2312 -391.87864,4551.0415 -392.01868,4551.8201 C -392.68511,4555.5253 -392.32892,4559.2164 -392.34987,4562.9562 C -392.29957,4575.5128 -392.42611,4588.0903 -393.89224,4600.58 C -397.41913,4629.2521 -403.74405,4657.7303 -416.36859,4683.8954 C -419.61365,4688.7847 -422.33427,4694.066 -426.10377,4698.5634 C -430.02074,4703.2368 -434.18863,4707.9024 -439.28992,4711.2431 C -455.96965,4722.1661 -473.38514,4731.9848 -491.10266,4741.1289 C -498.41255,4744.9016 -506.31364,4747.462 -514.173,4749.8906 C -535.34661,4756.4333 -552.94857,4758.8516 -574.89464,4762.8095 C -593.87918,4765.4707 -620.48697,4769.878 -640.04503,4770.1404 C -652.28148,4770.3045 -665.84258,4769.9253 -676.09616,4761.9314 C -681.07384,4758.0507 -687.04178,4744.9003 -689.63276,4739.8662 C -699.90681,4717.4482 -710.18375,4694.3225 -710.1885,4669.1857 C -710.46987,4645.1565 -711.11306,4621.1323 -711.15461,4597.101 C -710.82101,4574.6039 -709.90809,4551.9466 -705.96954,4529.7549 L -667.50961,4511.8662 z" />
    <path
       style="fill:#000000;fill-opacity:1;fill-rule:nonzero;stroke:none;stroke-width:1px;stroke-linecap:butt;stroke-linejoin:miter;stroke-opacity:1"
       id="path2523"
       d="M 551.93132,4078.4491 C 569.73477,4102.9326 586.33633,4128.253 602.86351,4153.6076 C 623.60696,4186.0677 641.67423,4220.1354 662.96816,4252.2558 C 674.85139,4270.1808 684.76016,4283.3766 697.32308,4300.5851 C 714.38634,4323.0218 730.55539,4346.4782 752.47396,4364.515 C 760.38457,4370.3199 767.88268,4376.6674 775.68279,4382.6122 C 777.44852,4383.9579 778.86795,4386.3786 781.08422,4386.5088 C 783.15568,4386.6305 784.61639,4384.3301 786.38247,4383.2408 C 777.66575,4386.517 766.94899,4399.5194 760.23229,4393.0695 C 754.0726,4387.1545 770.03834,4379.0633 774.3647,4371.7004 C 784.28959,4354.8096 803.45787,4316.3724 811.65278,4300.3269 C 844.36777,4236.2715 822.26905,4280.001 854.08041,4216.6744 C 860.24104,4204.02 866.38858,4191.3592 872.56229,4178.7111 C 886.76009,4149.6242 890.81036,4140.7072 905.94093,4112.7531 C 919.0024,4088.6218 932.91355,4065.0216 947.43882,4041.753 C 949.15634,4037.4814 967.16436,4017.0492 964.2394,4010.4671 C 963.75179,4009.3699 961.86946,4009.9418 960.66954,4009.9857 C 957.20125,4010.1126 953.75991,4010.6474 950.30499,4010.9771 C 944.6419,4011.5176 938.97868,4012.0566 933.31552,4012.5964 C 926.26131,4013.6669 919.19412,4014.6552 912.1529,4015.808 C 896.86481,4017.9515 881.83304,4021.5283 866.61981,4024.0836 C 843.80169,4027.9162 833.29542,4028.6574 809.22595,4031.9554 C 795.30234,4033.8632 781.40538,4035.9607 767.4951,4037.9633 C 727.75225,4044.7155 687.84378,4051.2427 648.70575,4061.0639 C 624.2322,4067.2053 600.50962,4075.4131 576.84513,4084.0601 C 571.75977,4086.1307 566.6744,4088.2013 561.58904,4090.2719 L 593.37107,4065.2989 C 598.3024,4063.406 603.23373,4061.5131 608.16506,4059.6202 C 631.39141,4051.5145 654.65937,4043.9615 678.64087,4038.3196 C 717.60325,4029.1533 757.24906,4023.1685 796.61847,4016.1269 C 830.39377,4010.7536 864.33764,4006.1604 898.04154,4000.3524 C 954.4614,3990.6301 886.66096,4001.6023 943.81256,3992.0562 C 951.06555,3990.8447 958.34133,3989.7739 965.60572,3988.6327 C 970.16282,3988.1422 989.53548,3985.2335 995.91356,3987.0691 C 998.35516,3987.7718 1000.8321,3989.591 1001.7642,3991.9545 C 1005.2179,4000.7122 986.50724,4020.015 983.50424,4025.8954 C 946.65923,4081.9467 915.73174,4141.4522 886.76239,4201.8989 C 866.22671,4242.6008 845.81834,4283.3347 825.75425,4324.2702 C 825.36731,4325.0596 802.87879,4372.3894 797.7137,4377.1792 C 784.37342,4389.5504 768.02048,4398.2112 753.17387,4408.7273 C 750.69004,4408.7807 748.09624,4409.6203 745.72239,4408.8874 C 743.58204,4408.2267 742.16337,4406.1662 740.40064,4404.784 C 732.6328,4398.693 724.71102,4392.8028 717.05897,4386.5693 C 695.92467,4367.3583 680.48406,4343.3915 664.04755,4320.2318 C 654.4621,4306.5642 639.19745,4284.9617 630.1759,4271.3845 C 608.8618,4239.3073 589.89534,4205.7661 568.75589,4173.5774 C 551.95551,4148.5544 535.1025,4123.4309 515.71051,4100.3149 L 551.93132,4078.4491 z" />
    <path
       style="fill:#000000;fill-opacity:1;fill-rule:nonzero;stroke:none;stroke-width:1px;stroke-linecap:butt;stroke-linejoin:miter;stroke-opacity:1"
       id="path2525"
       d="M 825.78088,4464.6333 C 813.81936,4483.5977 805.76764,4504.4718 800.4484,4526.1602 C 796.11046,4552.2029 801.87427,4571.4143 813.41464,4594.5548 C 818.42288,4601.7867 824.56493,4613.7294 834.89043,4614.3339 C 839.50489,4614.604 845.2615,4612.3855 849.44045,4611.1227 C 852.05806,4610.0334 854.73475,4609.0764 857.29328,4607.8548 C 859.65232,4606.7284 866.44711,4602.8006 864.17224,4604.0885 C 854.14651,4609.7647 844.33898,4615.8555 834.04018,4621.0197 C 832.03916,4622.0231 837.64147,4618.3118 839.13403,4616.6436 C 844.56137,4610.5773 845.56246,4607.2327 849.25353,4599.8365 C 858.5176,4576.7964 861.59622,4552.005 863.52791,4527.4321 C 863.78034,4517.4799 862.98331,4507.5516 861.97917,4497.6616 C 861.80047,4495.9016 860.85727,4486.1559 860.05217,4483.8715 C 859.4501,4482.1631 858.23807,4480.7357 857.33103,4479.1679 C 852.64224,4474.4819 846.62129,4472.5756 840.52688,4470.5135 L 875.22279,4447.1309 C 882.06773,4449.8507 888.65205,4452.4851 893.64487,4458.2162 C 894.78816,4460.2235 896.30064,4462.0617 897.07473,4464.2383 C 897.83884,4466.3869 898.62864,4476.866 898.76861,4478.5121 C 899.63163,4488.6619 900.46544,4498.8316 900.34439,4509.029 C 898.45466,4533.9756 894.95813,4558.9746 886.7847,4582.726 C 884.00649,4589.1625 881.94048,4595.0159 877.8145,4600.7305 C 876.45353,4602.6155 874.97114,4604.5377 873.01044,4605.7871 C 854.66827,4617.4755 836.92242,4629.4985 816.41199,4636.3883 C 810.19368,4637.6689 806.43447,4639.1869 800.0961,4637.7484 C 789.19988,4635.2753 783.1392,4623.2357 777.71087,4614.8478 C 766.08004,4590.7442 759.39516,4571.1339 763.41037,4543.9889 C 764.23322,4540.1661 764.85278,4536.2937 765.87893,4532.5203 C 770.69123,4514.8245 778.79511,4498.0675 787.26081,4481.8956 L 825.78088,4464.6333 z" />
    <path
       style="fill:#000000;fill-opacity:1;fill-rule:nonzero;stroke:none;stroke-width:1px;stroke-linecap:butt;stroke-linejoin:miter;stroke-opacity:1"
       id="path2527"
       d="M 1144.4895,5195.6003 C 1142.0311,5194.1541 1139.662,5192.5442 1137.1144,5191.2616 C 1127.8802,5186.6126 1112.5978,5180.4624 1103.7687,5176.7752 C 1083.4562,5168.2923 1063.2054,5159.8761 1043.231,5150.6232 C 1029.0482,5143.5434 1015.8288,5135.0314 1007.1658,5121.327 C 997.208,5105.5742 993.92361,5087.5293 990.45152,5069.6098 C 984.10114,5018.5884 985.2473,4966.9768 985.0887,4915.6578 C 985.66014,4887.2788 983.84474,4858.8493 985.04736,4830.4779 C 985.74934,4813.9172 986.5663,4809.4175 988.45847,4792.7147 C 996.4075,4742.0877 1008.8686,4691.9383 1026.5612,4643.7993 C 1031.4497,4630.4985 1037.1008,4617.4906 1042.3705,4604.3363 C 1074.4719,4530.6994 1124.5097,4468.9285 1179.7334,4411.561 C 1184.7128,4406.8197 1189.3737,4401.7198 1194.6714,4397.3372 C 1210.0049,4384.6526 1246.004,4369.0527 1256.6763,4365.9961 C 1262.2106,4364.4109 1268.1093,4367.7927 1273.552,4369.6687 C 1288.439,4374.8 1296.6005,4381.1606 1309.7951,4389.5951 C 1343.9377,4413.3276 1364.6821,4448.9058 1382.9846,4485.2313 C 1392.1563,4505.1651 1401.4369,4525.1665 1407.7907,4546.2262 C 1411.7956,4559.5005 1413.5367,4568.8084 1416.5299,4582.4829 C 1425.2111,4626.7868 1431.4654,4671.4674 1434.6393,4716.4967 C 1437.2141,4744.2674 1433.3977,4772.0195 1432.8753,4799.7647 C 1420.0759,4804.1817 1408.0165,4812.8775 1394.4771,4813.0157 C 1390.1818,4813.0596 1394.9202,4804.436 1395.1966,4800.1494 C 1396.1258,4785.7354 1396.7838,4775.8997 1398.8184,4761.2721 C 1401.9425,4738.8118 1404.1972,4729.6229 1408.816,4706.8209 C 1424.9844,4636.5273 1457.07,4571.5573 1490.9278,4508.3635 C 1503.2297,4487.6864 1515.4812,4466.6633 1530.9215,4448.0911 C 1535.1985,4442.9465 1546.4923,4430.931 1552.6792,4426.9939 C 1567.7715,4417.3898 1583.5497,4408.9088 1598.985,4399.8662 C 1603.9079,4398.43 1608.7117,4396.494 1613.7535,4395.5576 C 1640.2214,4390.6416 1671.3403,4395.4992 1695.7247,4406.411 C 1703.8686,4410.0554 1711.4153,4414.9094 1719.2606,4419.1586 C 1727.266,4424.9645 1735.6105,4430.3294 1743.2768,4436.5762 C 1776.4581,4463.6142 1808.7152,4500.1481 1833.2024,4535.1966 C 1839.3057,4543.9323 1844.7501,4553.1103 1850.5239,4562.0671 C 1874.4013,4605.3384 1893.4053,4651.5999 1904.852,4699.7672 C 1907.1384,4709.3884 1908.7864,4719.1501 1910.7536,4728.8416 C 1918.0921,4770.1128 1915.4112,4812.3406 1904.9322,4852.8443 C 1898.6391,4877.1685 1893.9403,4887.0532 1884.8354,4910.0994 C 1865.2233,4955.4683 1838.8801,4997.4349 1811.8408,5038.6547 C 1795.4492,5064.2837 1776.1461,5087.9062 1760.0535,5113.7123 C 1749.7904,5128.7879 1745.9752,5146.2902 1741.9093,5163.7323 C 1733.5755,5200.1353 1725.047,5236.4687 1717.9247,5273.1353 C 1711.2896,5305.4794 1705.1244,5337.8449 1700.2505,5370.505 C 1696.372,5396.468 1692.7217,5422.4767 1689.6507,5448.5492 C 1688.2345,5460.6171 1687.762,5472.7527 1686.5062,5484.8337 C 1685.3511,5496.6072 1684.9521,5508.4342 1684.6584,5520.2546 C 1684.2193,5524.3478 1684.4221,5528.684 1682.8971,5532.5978 C 1677.2005,5547.2179 1643.198,5556.9686 1641.8171,5557.576 C 1640.0377,5558.3589 1638.17,5556.2285 1636.3465,5555.5548 C 1633.5966,5554.1785 1630.773,5552.9407 1628.0969,5551.426 C 1618.9392,5546.2425 1610.8253,5540.5533 1602.0591,5534.6739 C 1583.8547,5522.4644 1566.0587,5509.7619 1548.2557,5496.9754 C 1524.7854,5479.7263 1500.6995,5463.2878 1477.4089,5445.7953 C 1457.7707,5434.8176 1437.8393,5424.4434 1418.4692,5412.9576 C 1401.2143,5402.5057 1384.7338,5390.5797 1370.1426,5376.6124 C 1360.6619,5365.5743 1349.6361,5356.0233 1339.859,5345.2815 C 1328.9657,5332.4706 1321.2424,5317.4637 1313.2202,5302.7905 C 1307.5983,5293.7595 1302.7978,5283.4248 1294.0833,5276.812 C 1289.0887,5273.0219 1285.1533,5271.6577 1279.4645,5269.1048 C 1253.9919,5259.658 1226.1062,5260.4899 1199.338,5259.0549 C 1171.5624,5257.2328 1144.057,5249.8265 1121.1658,5233.6643 C 1112.9424,5226.6522 1110.0334,5217.1861 1109.1695,5206.818 C 1108.9166,5200.4639 1109.2533,5194.1046 1109.473,5187.754 L 1147.2738,5168.6167 C 1147.1661,5174.875 1146.7726,5181.1242 1146.7473,5187.384 C 1147.0804,5196.6126 1148.9888,5204.9988 1156.3581,5211.3031 C 1178.254,5227.3122 1204.7387,5234.2158 1231.5981,5235.8764 C 1238.517,5236.2387 1245.4344,5236.6308 1252.3548,5236.9633 C 1273.2099,5237.9656 1294.7185,5237.2497 1314.1061,5246.178 C 1320.249,5249.1516 1324.2389,5250.6618 1329.6329,5254.9503 C 1338.5145,5262.0116 1343.2761,5272.769 1349.0285,5282.2024 C 1357.0601,5296.5305 1364.9463,5311.0193 1375.5989,5323.621 C 1385.2846,5334.358 1396.2415,5343.8745 1405.9015,5354.651 C 1419.8144,5368.642 1435.5954,5380.7297 1452.4832,5390.9158 C 1464.2002,5397.8047 1467.1919,5399.8009 1479.3231,5405.9811 C 1490.5151,5411.6827 1502.443,5416.1172 1512.6549,5423.5874 C 1535.0897,5441.6462 1558.2143,5458.8879 1581.4779,5475.8536 C 1599.4158,5488.5881 1617.3443,5501.1495 1635.9398,5512.9116 C 1645.2335,5518.7901 1652.7995,5523.8119 1662.6495,5528.4516 C 1665.3267,5529.7126 1668.1788,5530.5626 1670.9435,5531.618 C 1688.5564,5532.985 1677.8901,5531.2337 1642.1976,5552.5316 C 1641.309,5553.0619 1643.9364,5551.3439 1644.5608,5550.5188 C 1646.9814,5547.3204 1646.3226,5542.9717 1647.0597,5539.2883 C 1647.3877,5527.3517 1648.1819,5515.4363 1648.9797,5503.5233 C 1649.9548,5491.2955 1650.8322,5479.0525 1652.4958,5466.8913 C 1656.0912,5440.6223 1660.1415,5414.4163 1664.2031,5388.2161 C 1666.6347,5371.3148 1668.8266,5354.3404 1672.0831,5337.5708 C 1674.0797,5327.2897 1676.5157,5317.0981 1678.5953,5306.8335 C 1679.6859,5301.4503 1680.7132,5296.0546 1681.7721,5290.6651 C 1689.2714,5254.2775 1697.8431,5218.1133 1704.8465,5181.63 C 1708.4418,5163.7125 1711.8643,5145.7071 1722.4001,5130.3177 C 1738.7795,5104.1996 1758.4986,5080.4226 1775.3811,5054.6232 C 1802.8491,5013.4193 1829.9968,4971.6966 1849.9685,4926.2151 C 1859.2359,4903.6278 1864.3016,4893.2657 1870.7098,4869.3858 C 1881.4392,4829.4032 1883.967,4787.798 1876.894,4746.9607 C 1874.9285,4737.3631 1873.2598,4727.6998 1870.9976,4718.1678 C 1859.6524,4670.3654 1841.224,4624.2833 1817.6539,4581.2468 C 1811.986,4572.3373 1806.6615,4563.1998 1800.6502,4554.5184 C 1776.0856,4519.0427 1744.8762,4483.8854 1710.872,4457.1907 C 1703.1768,4451.1497 1694.8026,4446.0276 1686.7679,4440.4461 C 1678.9126,4436.4549 1671.3351,4431.8617 1663.2019,4428.4726 C 1638.7219,4418.2718 1607.7631,4414.1132 1581.7203,4420.4013 C 1576.7383,4421.6043 1572.067,4423.8485 1567.2403,4425.5721 C 1574.9836,4420.9694 1582.1493,4415.2144 1590.4703,4411.7641 C 1594.8204,4409.9604 1582.8958,4417.3851 1579.3933,4420.533 C 1575.234,4424.2712 1571.2252,4428.1975 1567.5225,4432.3886 C 1551.2474,4450.8108 1538.3996,4472.0444 1525.5294,4492.8563 C 1490.9239,4555.2606 1458.8745,4619.8934 1443.3946,4690.0384 C 1437.6122,4720.4718 1432.3352,4750.5905 1431.7548,4781.6384 C 1431.6798,4785.6527 1434.7589,4790.9217 1431.8443,4793.6832 C 1421.066,4803.8953 1406.6757,4809.4431 1394.0914,4817.3231 C 1394.6362,4816.9078 1395.5273,4816.7328 1395.726,4816.0772 C 1397.312,4810.8442 1398.2585,4794.5217 1398.4657,4791.2708 C 1399.6641,4772.471 1400.3776,4753.5902 1399.3387,4734.7637 C 1396.8525,4689.8828 1390.7394,4645.3674 1381.3721,4601.3889 C 1378.5342,4589.135 1376.14,4577.7372 1372.4524,4565.7304 C 1366.046,4544.8713 1356.8915,4525.0029 1348.2248,4505.03 C 1329.9412,4468.4555 1310.9073,4434.9897 1276.4432,4411.0864 C 1263.2445,4403.0108 1255.5457,4396.993 1240.522,4392.791 C 1235.255,4391.3179 1222.9444,4395.8908 1224.2637,4390.5831 C 1226.4172,4381.9195 1239.4009,4380.6758 1245.2169,4373.9031 C 1253.359,4364.4218 1198.0474,4407.3401 1215.4683,4396.7224 C 1208.8458,4403.3293 1202.0615,4409.778 1195.6007,4416.543 C 1146.9085,4467.528 1103.9303,4524.1097 1075.4797,4589.0192 C 1070.3129,4602.0419 1064.7414,4614.9113 1059.9791,4628.0874 C 1042.819,4675.5654 1031.5811,4725.1078 1024.2338,4774.9864 C 1022.3447,4792.0264 1021.6908,4795.4645 1020.865,4812.3349 C 1019.4672,4840.8887 1020.0987,4869.5247 1019.5438,4898.0952 C 1019.5489,4949.0104 1018.9712,5000.2258 1025.6592,5050.7981 C 1029.1145,5067.9995 1032.2462,5085.3985 1041.9859,5100.4489 C 1050.369,5113.403 1063.2162,5121.5444 1076.5359,5128.6053 C 1096.2756,5138.1395 1116.2419,5146.7329 1136.6582,5154.7373 C 1146.6965,5158.6728 1161.5918,5163.9374 1171.8918,5168.5942 C 1174.7097,5169.8682 1177.3665,5171.4719 1180.1038,5172.9108 L 1144.4895,5195.6003 z" />
    <path
       style="fill:#000000;fill-opacity:1;fill-rule:nonzero;stroke:none;stroke-width:1px;stroke-linecap:butt;stroke-linejoin:miter;stroke-opacity:1"
       id="path2529"
       d="M 1216.469,4784.0878 C 1217.7283,4792.8718 1219.6702,4801.5097 1221.763,4810.1232 L 1185.2658,4829.8262 C 1183.1716,4821.1656 1181.3408,4812.4531 1179.1838,4803.8081 L 1216.469,4784.0878 z" />
    <path
       style="fill:#000000;fill-opacity:1;fill-rule:nonzero;stroke:none;stroke-width:1px;stroke-linecap:butt;stroke-linejoin:miter;stroke-opacity:1"
       id="path2531"
       d="M 1618.8633,4817.597 C 1618.3895,4823.9554 1617.8928,4830.3118 1617.4287,4836.6709 L 1579.9836,4855.4049 C 1580.4429,4849.2153 1580.9514,4843.0256 1581.1367,4836.8197 L 1618.8633,4817.597 z" />
    <path
       style="fill:#000000;fill-opacity:1;fill-rule:nonzero;stroke:none;stroke-width:1px;stroke-linecap:butt;stroke-linejoin:miter;stroke-opacity:1"
       id="path2533"
       d="M 1268.8601,5074.1219 C 1274.6589,5077.3233 1279.8789,5081.8732 1286.3328,5083.8145 C 1291.5778,5085.3921 1298.3488,5085.959 1303.5958,5086.6219 C 1333.4735,5089.1569 1363.4215,5090.5044 1393.3891,5091.3159 C 1399.3813,5091.4158 1405.3731,5091.5433 1411.3657,5091.6157 C 1432.9099,5091.8761 1451.2451,5090.3763 1472.3993,5087.1448 C 1484.8443,5084.772 1497.1535,5081.0321 1508.0677,5074.4994 C 1425.6479,5121.842 1513.1202,5071.6174 1516.6967,5069.4657 C 1527.1423,5063.1815 1495.6294,5081.744 1484.9178,5087.5632 C 1483.3302,5088.4256 1487.8572,5085.4604 1489.2871,5084.3561 C 1493.1805,5081.349 1496.9651,5078.2035 1500.8067,5075.1306 C 1506.9998,5070.3518 1512.9514,5065.2665 1518.7903,5060.0642 L 1557.8077,5044.0952 C 1552.0097,5049.5835 1545.8011,5054.6485 1539.5444,5059.604 C 1530.1204,5067.0125 1537.2575,5061.2864 1528.3229,5068.7552 C 1526.9302,5069.9195 1525.6626,5071.2636 1524.1147,5072.2118 C 1510.8573,5080.3336 1497.0834,5087.6043 1483.9563,5095.935 C 1481.1183,5097.7361 1587.3482,5035.8857 1475.2103,5100.9541 C 1463.8331,5106.4629 1451.7419,5110.2462 1439.1987,5112.0015 C 1413.1663,5115.5399 1387.0593,5116.1295 1360.8044,5114.8718 C 1330.4549,5114.2487 1300.1637,5112.7551 1269.8919,5110.4576 C 1262.6658,5109.5152 1258.037,5109.3375 1251.3024,5107.0598 C 1244.6784,5104.8195 1239.2413,5099.9937 1233.0674,5096.8772 L 1268.8601,5074.1219 z" />
    <path
       style="fill:#000000;fill-opacity:1;fill-rule:nonzero;stroke:none;stroke-width:1px;stroke-linecap:butt;stroke-linejoin:miter;stroke-opacity:1"
       id="path2535"
       d="M 1378.8633,5100.4542 C 1378.5191,5112.6897 1378.6305,5124.9323 1378.7336,5137.1705 C 1378.836,5144.9448 1378.5217,5152.6938 1379.543,5160.4135 C 1380.1781,5161.0515 1380.6236,5161.9666 1381.4484,5162.3275 C 1386.4768,5164.5275 1396.0879,5164.9286 1401.5005,5165.4336 C 1413.9676,5166.5968 1409.2991,5166.1911 1422.8317,5167.0926 C 1439.9283,5168.8233 1456.6749,5167.4756 1472.7841,5161.2718 C 1476.4961,5159.8422 1486.9993,5154.187 1483.6399,5156.3168 C 1475.1386,5161.7067 1466.0809,5166.1642 1457.3015,5171.0878 C 1467.7677,5164.2273 1476.2067,5155.4076 1481.2067,5143.9252 C 1482.6216,5140.2449 1483.187,5136.375 1483.7131,5132.4978 L 1521.6218,5113.7497 C 1521.1786,5117.9454 1520.6976,5122.1404 1519.4403,5126.1919 C 1515.099,5138.7879 1506.5696,5148.4546 1495.8109,5156.2404 C 1481.2664,5164.6119 1459.4831,5179.8108 1440.3798,5186.2848 C 1423.8365,5191.8913 1406.7299,5192.4926 1389.4482,5191.0325 C 1378.8831,5190.4245 1354.1713,5190.3346 1345.2405,5184.1417 C 1343.85,5183.1774 1343.1362,5181.4912 1342.084,5180.166 C 1340.8966,5172.2259 1341.0986,5164.2785 1341.2664,5156.261 C 1341.3683,5144.0669 1341.4841,5131.8682 1341.1367,5119.6769 L 1378.8633,5100.4542 z" />
    <path
       style="fill:#000000;fill-opacity:1;fill-rule:nonzero;stroke:none;stroke-width:1px;stroke-linecap:butt;stroke-linejoin:miter;stroke-opacity:1"
       id="path2537"
       d="M 1484.1727,5124.7405 C 1485.0788,5118.8341 1485.4954,5112.8753 1486.3061,5106.9576 L 1524.2327,5088.4104 C 1523.0983,5094.2021 1522.7655,5100.0704 1522.2251,5105.9442 L 1484.1727,5124.7405 z" />
    <path
       style="fill:#000000;fill-opacity:1;fill-rule:nonzero;stroke:none;stroke-width:1px;stroke-linecap:butt;stroke-linejoin:miter;stroke-opacity:1"
       id="path2539"
       d="M 1436.7241,5108.0756 C 1440.4845,5121.1827 1443.4122,5134.5167 1445.654,5147.9629 L 1408.5246,5167.5963 C 1406.6855,5154.3566 1404.231,5141.0989 1399.6122,5128.5148 L 1436.7241,5108.0756 z" />
  </g>
</svg>
